<?xml version="1.0" standalone="no"?>
<!DOCTYPE svg PUBLIC "-//W3C//DTD SVG 20010904//EN"
 "http://www.w3.org/TR/2001/REC-SVG-20010904/DTD/svg10.dtd">
<svg version="1.0" xmlns="http://www.w3.org/2000/svg"
 width="1280.000000pt" height="350.000000pt" viewBox="0 0 1280.000000 350.000000"
 preserveAspectRatio="xMidYMid meet">

<g transform="translate(0.000000,350.000000) scale(0.100000,-0.100000)"
fill="#000000" stroke="none">
<path d="M2766 3485 c-32 -24 -11 -28 31 -6 34 18 35 20 13 20 -14 0 -34 -6
-44 -14z"/>
<path d="M2940 3490 c-10 -6 2 -8 38 -7 28 1 52 5 52 10 0 10 -72 9 -90 -3z"/>
<path d="M6850 3486 c0 -9 7 -12 20 -9 31 8 34 23 6 23 -16 0 -26 -6 -26 -14z"/>
<path d="M7163 3493 c9 -2 23 -2 30 0 6 3 -1 5 -18 5 -16 0 -22 -2 -12 -5z"/>
<path d="M7230 3490 c20 -13 43 -13 35 0 -3 6 -16 10 -28 10 -18 0 -19 -2 -7
-10z"/>
<path d="M7350 3490 c0 -5 5 -10 10 -10 6 0 10 5 10 10 0 6 -4 10 -10 10 -5 0
-10 -4 -10 -10z"/>
<path d="M3076 3476 c6 -15 3 -17 -14 -11 -31 9 -27 -9 3 -23 14 -7 28 -12 30
-12 10 0 4 27 -10 46 -14 18 -15 18 -9 0z"/>
<path d="M3210 3470 c0 -5 5 -10 10 -10 6 0 10 5 10 10 0 6 -4 10 -10 10 -5 0
-10 -4 -10 -10z"/>
<path d="M5860 3470 c19 -4 36 -13 38 -19 5 -15 32 -14 32 0 0 8 16 10 47 6
26 -3 40 -1 32 3 -7 4 -52 10 -99 14 -58 3 -74 2 -50 -4z"/>
<path d="M2822 3453 c2 -13 -3 -18 -19 -17 -25 1 -27 -4 -14 -24 7 -11 17 -8
52 14 39 24 41 28 24 35 -33 13 -46 10 -43 -8z"/>
<path d="M2998 3453 c7 -3 16 -2 19 1 4 3 -2 6 -13 5 -11 0 -14 -3 -6 -6z"/>
<path d="M6095 3430 c-21 -16 -45 -30 -55 -30 -9 0 -25 -10 -36 -21 l-19 -22
32 17 c38 19 63 21 63 4 0 -6 3 -8 7 -4 4 4 8 15 8 24 0 9 15 26 34 39 19 13
27 23 19 23 -8 0 -32 -13 -53 -30z"/>
<path d="M6421 3434 c-44 -23 -61 -39 -61 -58 0 -5 10 0 23 12 24 23 52 29 62
12 3 -5 13 -6 21 -3 13 5 13 7 2 15 -10 7 -9 11 7 21 11 6 31 15 45 18 19 5
16 7 -15 6 -22 0 -59 -10 -84 -23z"/>
<path d="M3142 3422 c2 -10 12 -16 23 -15 11 1 14 0 8 -3 -7 -3 -13 -12 -13
-21 0 -8 6 -13 13 -10 22 7 14 49 -11 58 -19 7 -23 6 -20 -9z"/>
<path d="M1952 3420 c-46 -11 -47 -14 -7 -44 26 -21 39 -25 49 -17 19 16 120
-4 170 -33 23 -13 53 -24 66 -23 14 0 35 -2 48 -7 43 -15 21 9 -26 28 -26 10
-95 38 -154 62 -59 24 -109 44 -110 43 -2 -1 -18 -5 -36 -9z"/>
<path d="M7190 3420 c0 -5 11 -10 24 -10 14 0 28 -5 31 -10 5 -8 11 -7 21 1 8
7 27 9 46 5 19 -4 28 -3 23 3 -15 13 -145 24 -145 11z"/>
<path d="M2864 3396 c-11 -13 -26 -25 -33 -27 -11 -4 -9 -14 8 -47 26 -51 37
-55 16 -6 l-15 35 48 21 c29 13 41 23 32 26 -8 3 -20 8 -25 13 -6 4 -19 -2
-31 -15z"/>
<path d="M7409 3391 c-13 -10 -34 -21 -46 -25 -11 -4 -27 -14 -35 -23 -12 -15
-11 -15 11 -4 12 7 32 11 42 8 12 -3 19 0 19 8 0 8 12 23 26 34 15 12 22 21
17 21 -6 0 -21 -8 -34 -19z"/>
<path d="M7666 3387 c-22 -12 -42 -29 -44 -37 -4 -11 0 -10 16 4 13 11 28 16
39 12 23 -9 28 -8 28 4 0 13 17 27 40 33 13 3 10 5 -10 5 -16 0 -48 -9 -69
-21z"/>
<path d="M2815 3390 c-3 -5 -2 -10 4 -10 5 0 13 5 16 10 3 6 2 10 -4 10 -5 0
-13 -4 -16 -10z"/>
<path d="M6705 3390 c-4 -6 7 -10 24 -10 21 0 31 -5 31 -15 0 -18 5 -18 29 -5
11 6 30 6 50 0 17 -5 33 -5 36 0 3 5 -11 12 -32 15 -21 3 -54 10 -74 15 -46
13 -56 12 -64 0z"/>
<path d="M3195 3360 c-13 -5 -14 -9 -5 -9 8 0 24 4 35 9 13 5 14 9 5 9 -8 0
-24 -4 -35 -9z"/>
<path d="M2896 3328 c9 -30 10 -32 29 -24 13 4 14 10 5 26 -15 29 -43 27 -34
-2z"/>
<path d="M2066 3261 c37 -45 70 -81 73 -81 31 0 139 24 159 34 l25 13 -27 7
c-17 4 -39 1 -58 -9 -17 -8 -36 -15 -41 -15 -21 0 -86 35 -87 46 0 7 -7 15
-15 18 -10 4 -15 16 -13 33 3 26 0 28 -40 31 l-43 3 67 -80z"/>
<path d="M2947 3334 c-9 -9 2 -24 17 -24 7 0 13 7 13 15 0 15 -18 20 -30 9z"/>
<path d="M2386 3271 c-4 -6 -19 -11 -33 -11 -22 0 -24 -2 -12 -16 11 -14 11
-18 -5 -29 -17 -13 -17 -15 4 -43 21 -28 23 -29 98 -25 42 2 101 6 130 9 47 5
53 8 50 27 -3 24 -70 67 -105 67 -13 0 -23 4 -23 9 0 14 -42 21 -63 9 -14 -7
-22 -7 -27 2 -5 9 -9 9 -14 1z"/>
<path d="M2787 3245 c-32 -6 -60 -12 -62 -13 -3 -1 -21 -4 -40 -8 -21 -4 -35
-12 -35 -21 0 -17 49 -10 125 18 28 11 59 19 70 19 11 0 26 4 34 9 19 12 -21
11 -92 -4z"/>
<path d="M3140 3249 c0 -5 5 -7 10 -4 6 3 10 8 10 11 0 2 -4 4 -10 4 -5 0 -10
-5 -10 -11z"/>
<path d="M2966 3186 c-8 -13 -29 -27 -45 -31 -16 -3 -36 -14 -43 -22 -11 -14
-10 -16 10 -11 34 9 26 -6 -18 -36 -45 -29 -48 -30 -87 -15 l-28 11 33 13 c17
8 32 19 32 25 0 6 28 24 63 40 l62 28 -44 -5 c-24 -3 -52 -13 -61 -22 -9 -9
-43 -35 -74 -59 -31 -24 -54 -47 -51 -52 3 -5 -6 -12 -21 -16 -19 -5 -22 -9
-12 -15 11 -7 10 -11 -2 -19 -8 -5 -24 -10 -34 -10 -18 0 -18 -1 -2 -19 15
-16 15 -19 2 -24 -10 -4 -13 -1 -10 7 8 22 -34 12 -64 -16 -15 -13 -42 -35
-59 -47 -46 -32 -41 -43 9 -19 23 11 51 21 63 23 12 1 49 21 83 44 75 51 111
66 126 51 5 -5 20 -10 33 -10 20 0 21 3 13 26 -6 14 -10 27 -10 29 0 2 26 22
58 43 61 42 102 59 102 44 0 -5 12 -12 26 -15 23 -4 25 -2 19 22 -4 14 -8 33
-9 41 -1 14 -24 39 -37 40 -4 0 -14 -11 -23 -24z m-256 -201 c0 -2 -9 -9 -19
-15 -14 -7 -22 -7 -27 2 -4 7 -3 8 4 4 7 -4 12 -2 12 3 0 6 7 11 15 11 8 0 15
-2 15 -5z"/>
<path d="M2690 3180 l-35 -7 43 -2 c27 0 41 3 37 9 -3 6 -7 9 -8 9 -1 -1 -18
-5 -37 -9z"/>
<path d="M2818 3183 c7 -3 16 -2 19 1 4 3 -2 6 -13 5 -11 0 -14 -3 -6 -6z"/>
<path d="M2278 3153 c12 -2 30 -2 40 0 9 3 -1 5 -23 4 -22 0 -30 -2 -17 -4z"/>
<path d="M2073 3081 c-29 -36 -50 -67 -48 -69 14 -14 183 83 215 124 13 17 13
18 0 8 -17 -12 -73 -18 -66 -6 2 4 -8 7 -23 7 -21 1 -37 -13 -78 -64z m87 28
c0 -14 -29 -17 -34 -4 -3 9 2 13 15 12 10 -1 19 -4 19 -8z"/>
<path d="M3145 3140 c-3 -5 -1 -10 4 -10 6 0 11 5 11 10 0 6 -2 10 -4 10 -3 0
-8 -4 -11 -10z"/>
<path d="M7845 3030 c-3 -5 -4 -14 -1 -19 10 -15 -15 -73 -29 -67 -17 6 -35
-14 -35 -40 0 -13 -5 -26 -11 -30 -15 -9 -7 -163 9 -173 8 -4 8 -19 1 -50 -5
-25 -8 -50 -5 -57 3 -8 1 -16 -4 -19 -5 -3 -9 -22 -8 -43 0 -20 -12 -116 -26
-212 -14 -96 -28 -200 -31 -230 -15 -169 -18 -196 -25 -205 -8 -11 -21 -105
-20 -149 0 -15 -4 -34 -10 -41 -5 -7 -12 -30 -14 -51 -1 -21 -8 -50 -13 -64
-6 -14 -9 -36 -8 -50 2 -14 -3 -34 -11 -45 -8 -11 -14 -27 -14 -37 0 -12 -8
-18 -25 -18 -14 0 -29 -8 -35 -19 -11 -21 -2 -114 10 -106 13 8 19 -22 7 -34
-8 -8 -8 -11 0 -11 6 0 14 6 17 13 5 10 7 10 12 0 3 -7 13 -13 22 -13 14 0 15
2 2 10 -8 5 -11 12 -7 16 4 4 15 0 25 -9 16 -15 19 -15 30 3 7 11 12 29 12 39
0 17 -7 20 -42 19 -24 0 -49 -5 -55 -10 -15 -12 -17 0 -4 21 5 7 17 11 28 7
10 -3 37 -7 60 -8 37 -1 41 -3 32 -19 -16 -30 -11 -59 10 -59 10 0 21 -7 25
-15 3 -8 13 -15 21 -15 9 0 13 5 10 10 -4 6 -11 8 -16 5 -5 -4 -9 -1 -9 5 0 6
14 8 41 4 l40 -7 -3 34 c-2 28 -8 35 -33 41 -16 3 -1 4 35 1 70 -6 93 -13 42
-13 -27 0 -32 -4 -32 -24 0 -14 5 -28 10 -31 6 -4 8 -11 5 -16 -9 -14 25 -23
37 -11 8 8 4 9 -13 5 -13 -3 -21 -2 -17 2 4 4 25 8 45 9 34 1 38 3 35 26 -2
13 -11 30 -20 37 -15 11 -15 12 6 13 18 0 22 -5 22 -30 0 -38 16 -39 24 -2 4
15 9 34 12 43 5 19 -33 39 -79 40 -18 0 -41 4 -52 9 -13 6 1 7 40 4 47 -4 56
-3 42 6 -12 7 -16 18 -12 31 4 10 3 24 -1 31 -9 14 -8 5 -18 348 -6 212 -9
247 -24 259 -16 13 -16 13 1 8 21 -8 19 -35 22 328 3 269 4 282 24 315 20 31
22 45 17 120 -3 47 -6 86 -6 88 0 1 -9 2 -20 2 -22 0 -35 35 -27 75 5 27 -7
43 -18 25z m22 -116 c-3 -3 -12 -4 -19 -1 -8 3 -5 6 6 6 11 1 17 -2 13 -5z
m-17 -64 c0 -5 -4 -10 -9 -10 -6 0 -13 5 -16 10 -3 6 1 10 9 10 9 0 16 -4 16
-10z m0 -50 c0 -5 -4 -10 -10 -10 -5 0 -10 5 -10 10 0 6 5 10 10 10 6 0 10 -4
10 -10z m42 -44 c-8 -18 -10 -16 -9 17 1 28 3 33 10 21 6 -10 5 -24 -1 -38z
m-105 -18 c-3 -8 -6 -5 -6 6 -1 11 2 17 5 13 3 -3 4 -12 1 -19z m53 -48 c0 -5
-5 -10 -11 -10 -5 0 -7 5 -4 10 3 6 8 10 11 10 2 0 4 -4 4 -10z m0 -57 c0 -5
-5 -15 -10 -23 -8 -12 -10 -11 -10 8 0 12 5 22 10 22 6 0 10 -3 10 -7z m-10
-53 c0 -5 -5 -10 -11 -10 -5 0 -7 5 -4 10 3 6 8 10 11 10 2 0 4 -4 4 -10z m0
-60 c0 -5 -4 -10 -10 -10 -5 0 -10 5 -10 10 0 6 5 10 10 10 6 0 10 -4 10 -10z
m-5 -59 c3 -5 1 -12 -5 -16 -5 -3 -10 1 -10 9 0 18 6 21 15 7z m-5 -71 c0 -5
-4 -10 -10 -10 -5 0 -10 5 -10 10 0 6 5 10 10 10 6 0 10 -4 10 -10z m0 -69 c0
-6 -4 -13 -10 -16 -5 -3 -10 1 -10 9 0 9 5 16 10 16 6 0 10 -4 10 -9z m-10
-75 c0 -8 -4 -18 -10 -21 -5 -3 -10 3 -10 14 0 12 5 21 10 21 6 0 10 -6 10
-14z m17 -152 c-7 -7 -37 7 -37 17 0 6 9 5 21 -1 11 -7 19 -14 16 -16z m-27
-19 c0 -8 -4 -15 -10 -15 -5 0 -10 7 -10 15 0 8 5 15 10 15 6 0 10 -7 10 -15z
m-8 -101 c0 -38 4 -77 10 -87 7 -14 7 -17 -1 -13 -14 9 -15 -43 -1 -79 7 -19
7 -24 -2 -19 -8 5 -9 -9 -5 -55 4 -40 3 -60 -3 -56 -6 3 -10 27 -11 53 0 26
-3 41 -6 34 -3 -9 -10 -5 -19 13 -9 17 -10 33 -4 49 5 13 7 36 6 51 -2 14 2
29 8 31 6 2 10 23 9 46 -1 48 7 111 14 104 3 -3 5 -35 5 -72z m48 -138 c0 -3
-4 -8 -10 -11 -5 -3 -10 -1 -10 4 0 6 5 11 10 11 6 0 10 -2 10 -4z m20 -79 c0
-2 -12 -14 -27 -28 l-28 -24 24 28 c23 25 31 32 31 24z m-119 -70 c-17 -17
-24 -1 -9 22 11 18 14 19 16 5 2 -9 -1 -21 -7 -27z m29 -31 c0 -3 -4 -8 -10
-11 -5 -3 -10 -1 -10 4 0 6 5 11 10 11 6 0 10 -2 10 -4z m88 -8 c-7 -7 -22
-20 -33 -28 -19 -14 -19 -14 -5 5 17 23 32 35 43 35 5 0 2 -6 -5 -12z m-142
-89 c-9 -19 -14 -25 -12 -14 2 11 8 38 12 60 7 34 8 36 12 14 1 -15 -4 -42
-12 -60z m84 36 c0 -8 6 -15 13 -16 10 0 10 -2 0 -6 -7 -2 -13 -19 -13 -35 0
-43 -6 -32 -13 25 -4 28 -3 47 3 47 6 0 10 -7 10 -15z m-20 -29 c0 -2 -8 -10
-17 -17 -16 -13 -17 -12 -4 4 13 16 21 21 21 13z m-110 -10 c0 -2 -8 -10 -17
-17 -16 -13 -17 -12 -4 4 13 16 21 21 21 13z m162 -44 c-37 -37 -52 -43 -52
-20 0 4 6 8 13 8 7 0 26 13 42 30 16 16 30 28 33 26 2 -3 -14 -22 -36 -44z
m-114 -12 c-13 -21 -28 -27 -28 -10 0 5 8 14 18 19 23 14 24 14 10 -9z m-21
-52 c-3 -8 -6 -5 -6 6 -1 11 2 17 5 13 3 -3 4 -12 1 -19z m100 -10 c-3 -8 -6
-5 -6 6 -1 11 2 17 5 13 3 -3 4 -12 1 -19z m-122 -28 c17 -7 16 -9 -10 -9 -16
0 -50 4 -75 8 l-45 8 55 1 c30 0 64 -3 75 -8z m225 -130 c0 -5 -2 -10 -4 -10
-3 0 -8 5 -11 10 -3 6 -1 10 4 10 6 0 11 -4 11 -10z"/>
<path d="M7766 1824 c-9 -24 -7 -54 4 -54 6 0 10 16 10 35 0 38 -4 44 -14 19z"/>
<path d="M11122 2997 c-99 -59 -102 -64 -58 -72 20 -4 36 -12 36 -17 0 -6 -13
-7 -32 -2 -18 4 -39 7 -45 7 -7 0 -13 5 -13 11 0 6 -7 3 -14 -7 -7 -9 -20 -15
-29 -12 -18 7 -72 -40 -62 -54 3 -6 1 -11 -4 -11 -6 0 -11 5 -11 12 0 6 -9 3
-20 -7 -17 -16 -25 -17 -57 -7 -20 6 -39 9 -42 6 -3 -3 5 -7 17 -11 30 -7 28
-18 -8 -33 -52 -22 -36 -39 60 -63 36 -9 84 -19 108 -22 31 -5 42 -11 42 -24
0 -12 18 -23 63 -38 l62 -21 -77 3 c-42 2 -87 9 -99 16 -17 9 -24 9 -27 1 -2
-8 -13 -7 -35 4 -29 13 -30 13 -13 -1 11 -8 23 -15 28 -15 4 0 8 -7 8 -16 0
-14 -7 -16 -45 -11 -24 4 -47 3 -49 -2 -10 -16 53 -34 99 -29 38 5 50 1 85
-24 57 -42 50 -63 -17 -47 -18 4 -33 3 -33 -2 0 -12 46 -23 65 -15 8 3 15 1
15 -5 0 -6 13 -7 33 -4 27 5 41 0 86 -34 30 -23 62 -41 71 -41 8 0 26 -7 38
-16 41 -29 34 -8 -10 29 -48 40 -208 193 -208 200 0 4 89 -7 180 -23 30 -5 95
-12 144 -15 87 -6 91 -8 143 -50 83 -68 128 -74 79 -11 -14 19 -26 39 -26 44
0 10 -21 15 -113 28 -39 5 -45 9 -36 20 7 9 17 11 28 5 9 -5 36 -12 60 -16 43
-7 45 -6 90 41 25 27 64 63 86 80 l40 32 -30 8 c-23 5 -58 -3 -155 -36 -69
-24 -128 -47 -131 -52 -3 -4 -26 -6 -51 -3 -32 4 -58 0 -92 -14 l-46 -20 -85
21 c-47 12 -85 26 -85 30 0 15 37 82 57 103 25 27 33 50 22 64 -6 8 -5 8 3 1
14 -11 48 15 48 37 0 8 21 37 48 65 26 27 47 55 47 61 0 7 -13 13 -30 15 -21
1 -52 -11 -103 -41z m18 -98 c0 -4 -7 -6 -15 -3 -8 4 -15 10 -15 15 0 4 7 6
15 3 8 -4 15 -10 15 -15z m-72 -26 c-10 -2 -26 -2 -35 0 -10 3 -2 5 17 5 19 0
27 -2 18 -5z m6 -52 c-2 -3 -12 3 -22 13 -16 17 -16 18 5 5 12 -7 20 -15 17
-18z m-74 -6 c3 0 14 -6 25 -12 16 -9 7 -11 -47 -8 -76 3 -81 -7 -13 -24 25
-6 45 -13 45 -14 0 -2 -25 -3 -55 -3 -30 1 -55 4 -55 9 0 5 -10 5 -22 1 -21
-6 -21 -6 3 24 23 29 77 46 104 32 6 -2 12 -5 15 -5z m456 -150 c-11 -8 -25
-15 -30 -15 -6 0 -2 7 8 15 11 8 25 15 30 15 6 0 2 -7 -8 -15z m-46 -19 c0
-11 -19 -15 -25 -6 -3 5 1 10 9 10 9 0 16 -2 16 -4z m-380 -86 c8 -5 11 -10 5
-10 -5 0 -21 10 -35 21 -24 20 -5 13 30 -11z"/>
<path d="M10900 2920 c0 -6 7 -10 15 -10 8 0 15 2 15 4 0 2 -7 6 -15 10 -8 3
-15 1 -15 -4z"/>
<path d="M10470 2833 c0 -8 66 -34 143 -57 96 -27 197 -71 197 -85 0 -5 10 -9
23 -8 12 0 31 -3 42 -7 11 -4 -16 11 -59 33 -43 22 -82 45 -86 51 -4 6 -27 16
-51 21 -24 5 -54 14 -66 19 -57 25 -70 29 -105 32 -21 2 -38 3 -38 1z"/>
<path d="M5221 2779 c-1 -54 -39 -181 -61 -203 -5 -5 -10 -21 -10 -34 0 -13
-4 -20 -10 -17 -5 3 -10 -1 -10 -10 0 -14 8 -16 53 -11 83 8 91 10 105 23 11
11 16 10 28 -2 9 -8 24 -20 34 -25 27 -14 33 14 8 37 -11 10 -25 29 -31 43 -8
20 -11 22 -14 8 -8 -34 -26 -19 -20 16 3 20 0 39 -6 45 -7 7 -12 15 -13 19 0
4 -6 21 -13 37 -7 17 -19 53 -26 80 l-14 50 0 -56z"/>
<path d="M7046 2583 c-9 -10 4 -23 23 -23 10 0 24 -7 31 -15 9 -11 17 -12 32
-4 17 9 18 13 7 24 -15 14 -84 27 -93 18z"/>
<path d="M6990 2570 c-13 -8 -12 -10 3 -10 9 0 17 5 17 10 0 12 -1 12 -20 0z"/>
<path d="M7165 2530 c3 -5 8 -10 11 -10 2 0 4 5 4 10 0 6 -5 10 -11 10 -5 0
-7 -4 -4 -10z"/>
<path d="M5243 2491 c-5 -18 -7 -19 -20 -6 -19 20 -33 10 -34 -23 -2 -24 -2
-24 -6 -4 -7 37 -26 25 -21 -13 3 -31 1 -36 -20 -42 -15 -3 -21 -10 -17 -20 7
-21 -40 -114 -75 -148 -39 -37 -38 -45 5 -45 34 0 35 -1 35 -40 0 -23 5 -40
11 -40 8 0 10 15 7 45 -4 35 -2 45 9 45 8 0 11 -5 8 -10 -9 -15 4 -70 17 -70
5 0 8 18 6 42 -3 38 -1 42 24 49 22 6 27 4 26 -9 -3 -44 3 -73 15 -69 6 2 11
8 11 13 -1 5 -4 23 -7 41 -5 22 -2 33 9 37 11 4 14 -1 13 -17 -4 -42 1 -67 12
-67 8 0 10 14 6 44 -6 39 -4 44 16 50 39 10 44 7 42 -29 -3 -50 -12 -54 -21
-10 -5 29 -9 34 -16 22 -11 -21 0 -67 18 -67 7 0 11 -6 8 -14 -3 -8 -12 -12
-19 -10 -7 3 -16 0 -20 -5 -3 -6 -11 -9 -16 -6 -5 4 -15 3 -21 -2 -7 -4 -24
-8 -38 -8 -14 0 -31 -4 -37 -8 -7 -5 -17 -6 -22 -2 -5 3 -12 1 -16 -4 -3 -6
-12 -8 -19 -5 -8 3 -17 1 -21 -5 -10 -18 -25 -12 -25 9 0 11 -4 20 -9 20 -14
0 2 -291 19 -350 5 -17 7 -37 4 -45 -4 -10 0 -12 15 -8 14 4 21 1 21 -9 0 -8
7 -23 16 -34 14 -18 15 -17 9 19 -4 27 -3 37 4 32 6 -3 11 -12 11 -19 0 -8 7
-19 15 -26 12 -10 15 -9 15 7 0 10 -5 24 -12 31 -9 9 -8 12 5 12 9 0 17 -6 17
-14 0 -7 7 -19 15 -26 18 -15 21 1 5 31 -8 15 -7 19 5 19 8 0 15 -8 15 -19 0
-10 8 -25 17 -32 15 -12 16 -12 11 6 -3 11 -9 28 -13 39 -6 14 -5 17 6 14 8
-3 13 -10 12 -16 -1 -5 7 -18 17 -27 22 -20 27 -6 10 26 -6 10 -7 19 -3 19 5
0 13 -10 18 -22 12 -26 42 -40 32 -14 -4 9 -10 23 -13 31 -3 8 -2 15 2 15 18
0 33 -58 39 -150 3 -52 8 -117 10 -145 10 -138 16 -228 19 -310 3 -49 7 -124
11 -165 3 -41 8 -103 11 -137 4 -62 4 -63 -21 -63 -14 0 -25 -4 -25 -10 0 -5
4 -10 9 -10 6 0 12 -19 14 -42 l4 -43 1 48 c3 63 22 52 22 -13 0 -43 -3 -48
-25 -54 -14 -4 -30 -4 -35 -1 -6 4 -10 2 -10 -4 0 -6 -6 -8 -14 -5 -8 3 -23 1
-33 -5 -15 -10 -14 -11 11 -9 33 3 31 8 41 -127 11 -148 13 -166 20 -173 4 -4
5 25 1 63 -19 222 -19 245 -4 245 12 0 17 -22 23 -110 3 -60 10 -110 15 -110
4 0 6 17 4 38 -2 20 -5 65 -8 100 -3 34 -2 62 3 62 9 0 22 -137 20 -225 -2
-56 -2 -58 -9 -20 -7 37 -7 38 -10 10 -1 -16 -1 -34 0 -40 1 -5 2 -41 2 -80
l-1 -70 13 40 14 40 1 -39 c1 -30 4 -37 17 -32 9 3 18 6 20 6 2 0 1 43 -2 95
-6 76 -4 95 6 95 10 0 10 3 -2 13 -12 9 -17 41 -23 127 -15 249 -15 232 1 219
13 -11 14 -3 8 57 -8 84 -14 95 -14 26 0 -29 -4 -52 -8 -52 -8 0 -32 329 -25
339 8 12 13 -13 21 -100 8 -85 9 -88 10 -29 0 66 -14 204 -17 163 -1 -27 -21
-31 -21 -5 0 9 -2 69 -5 132 -4 76 -2 108 4 95 7 -15 10 -1 10 50 0 58 -2 66
-11 45 -14 -33 -16 -26 -27 123 -6 74 -15 135 -23 144 -10 13 -9 14 7 12 11
-2 25 0 32 4 6 4 15 3 18 -3 5 -8 11 -8 20 0 10 8 32 2 86 -24 41 -19 78 -32
83 -29 5 3 -11 13 -35 23 -24 9 -60 24 -80 34 -47 22 -57 22 -164 1 -49 -9
-102 -19 -116 -21 -15 -2 -46 -8 -70 -13 -24 -5 -44 -9 -46 -8 -1 2 -4 23 -7
47 l-6 45 16 -37 c21 -49 34 -49 28 0 -5 33 -4 35 8 17 7 -11 13 -23 14 -27 5
-23 8 -19 14 17 l7 40 8 -32 c4 -18 12 -33 17 -33 5 0 8 15 6 33 -3 28 0 32
25 35 21 3 27 -1 27 -16 0 -11 7 -25 15 -32 12 -10 13 -6 8 27 -6 35 -5 37 10
24 10 -7 17 -22 17 -32 0 -11 4 -19 9 -19 6 0 8 17 5 38 l-4 37 15 -32 c14
-31 39 -48 30 -20 -2 6 -7 64 -10 127 -17 293 -15 320 16 320 15 0 18 -6 15
-40 -3 -30 0 -40 11 -40 12 0 14 9 9 45 -5 29 -4 45 3 45 6 0 11 -4 11 -9 0
-13 118 -72 124 -62 4 5 -7 23 -24 39 -16 17 -30 35 -30 41 0 12 -16 15 -23 4
-2 -5 -2 -2 -1 4 2 7 -6 18 -17 24 -11 6 -18 16 -16 24 6 15 -11 35 -30 35 -7
0 -13 -4 -13 -10 0 -5 7 -10 15 -10 8 0 15 -7 15 -15 0 -13 -3 -13 -20 -3 -11
7 -20 21 -20 30 0 10 -7 18 -17 18 -13 0 -14 3 -5 12 10 10 17 10 32 0 25 -15
30 -15 30 1 0 19 -47 60 -59 52 -6 -3 -11 -1 -11 5 0 6 -4 8 -10 5 -5 -3 -10
-1 -10 5 0 6 -4 8 -10 5 -5 -3 -10 3 -10 14 0 11 -9 25 -21 31 -17 10 -21 8
-26 -9z m24 -33 c-3 -8 -6 -5 -6 6 -1 11 2 17 5 13 3 -3 4 -12 1 -19z m13
-158 c0 -5 -2 -10 -4 -10 -3 0 -8 5 -11 10 -3 6 -1 10 4 10 6 0 11 -4 11 -10z
m-37 -234 c54 -23 70 -49 64 -102 -7 -69 -41 -99 -113 -99 -41 0 -59 4 -68 18
-7 9 -18 17 -25 17 -6 0 -12 -8 -12 -17 -1 -10 -5 0 -8 22 -9 54 -3 75 23 76
20 2 19 2 -2 6 -13 3 -26 11 -29 19 -3 8 -9 11 -14 8 -5 -3 -9 3 -9 13 0 13 7
19 25 19 16 0 21 -4 15 -11 -5 -6 -5 -17 0 -25 8 -13 10 -13 10 1 0 21 31 48
66 59 40 12 41 12 77 -4z m-176 -98 c-3 -8 -6 -5 -6 6 -1 11 2 17 5 13 3 -3 4
-12 1 -19z m4 -90 c2 -26 0 -50 -4 -54 -4 -4 -7 19 -7 51 0 69 7 70 11 3z
m329 -448 c0 -11 -4 -20 -10 -20 -5 0 -10 9 -10 20 0 11 5 20 10 20 6 0 10 -9
10 -20z"/>
<path d="M5164 1973 c10 -11 66 -12 66 -2 0 5 -16 9 -37 9 -20 0 -33 -3 -29
-7z"/>
<path d="M5160 1949 c0 -5 5 -7 10 -4 6 3 10 8 10 11 0 2 -4 4 -10 4 -5 0 -10
-5 -10 -11z"/>
<path d="M7094 2449 c-3 -5 -14 -9 -25 -9 -11 0 -23 -9 -28 -22 -7 -19 -8 -19
-14 -3 -6 14 -10 15 -22 5 -24 -20 -18 -44 20 -85 20 -20 37 -36 39 -34 1 2
24 27 50 56 40 43 46 55 37 71 -12 22 -48 35 -57 21z"/>
<path d="M6505 2360 c-29 -5 -30 -7 -32 -65 -3 -55 0 -63 28 -94 l32 -34 43
45 c55 58 64 91 34 123 -24 25 -58 33 -105 25z m11 -44 c-1 -37 -16 -39 -16
-2 0 19 7 36 15 36 1 0 1 -15 1 -34z"/>
<path d="M7055 2270 c3 -5 8 -10 11 -10 2 0 4 5 4 10 0 6 -5 10 -11 10 -5 0
-7 -4 -4 -10z"/>
<path d="M5164 2169 c3 -17 6 -36 6 -41 0 -5 4 -7 8 -4 11 7 2 76 -10 76 -6 0
-8 -13 -4 -31z"/>
<path d="M7360 2130 c0 -31 -4 -49 -10 -45 -5 3 -10 24 -10 46 0 27 -4 38 -11
33 -6 -4 -8 -19 -5 -38 4 -17 7 -41 7 -52 -1 -12 8 -29 19 -39 23 -21 34 -15
75 45 26 38 27 41 11 65 -9 14 -23 25 -30 25 -8 0 -21 3 -30 6 -13 5 -16 -3
-16 -46z"/>
<path d="M5432 2140 c-2 -41 6 -54 33 -58 24 -4 63 -48 67 -76 6 -39 24 -26
26 19 1 41 -1 47 -30 65 -18 11 -44 22 -59 25 -20 5 -29 14 -32 33 -3 22 -4
21 -5 -8z"/>
<path d="M5391 2151 c-16 -10 -16 -43 -1 -163 5 -46 10 -87 10 -92 0 -5 2 -7
5 -5 2 3 0 56 -5 119 -8 84 -7 115 1 121 6 4 10 12 8 18 -3 6 -9 7 -18 2z"/>
<path d="M5535 2120 c-3 -5 -1 -10 4 -10 6 0 11 5 11 10 0 6 -2 10 -4 10 -3 0
-8 -4 -11 -10z"/>
<path d="M4807 2063 c10 -18 20 -28 22 -22 2 6 -6 21 -19 33 l-21 21 18 -32z"/>
<path d="M4401 2034 c-12 -15 -21 -30 -21 -35 0 -12 42 -49 49 -44 4 2 8 -5 9
-16 1 -10 4 -32 6 -49 2 -16 4 -32 5 -34 0 -3 15 0 31 5 30 11 39 32 20 44 -5
3 -10 1 -10 -5 0 -6 -4 -8 -10 -5 -5 3 -10 15 -10 27 0 11 -12 29 -26 40 -18
15 -24 28 -21 44 2 13 0 21 -4 18 -13 -8 -11 10 3 24 7 7 9 12 6 12 -4 0 -16
-12 -27 -26z"/>
<path d="M4698 2048 c-3 -7 -1 -24 3 -38 8 -29 9 -27 13 18 4 31 -7 44 -16 20z"/>
<path d="M4506 2013 c9 -50 24 -66 24 -26 0 38 -9 63 -22 63 -5 0 -6 -16 -2
-37z"/>
<path d="M4447 2023 c-3 -5 0 -19 8 -29 15 -20 18 -11 6 20 -4 11 -10 15 -14
9z"/>
<path d="M4615 2000 c28 -12 37 -12 30 0 -3 6 -16 10 -28 9 -21 0 -21 -1 -2
-9z"/>
<path d="M5480 1992 c0 -5 7 -15 15 -22 8 -7 15 -8 15 -2 0 5 -7 15 -15 22 -8
7 -15 8 -15 2z"/>
<path d="M4770 1969 c0 -5 5 -7 10 -4 6 3 10 8 10 11 0 2 -4 4 -10 4 -5 0 -10
-5 -10 -11z"/>
<path d="M11321 1966 c-8 -9 -14 -29 -15 -44 -1 -24 -4 -27 -33 -24 -25 2 -33
-1 -33 -12 0 -10 9 -16 23 -17 48 -1 82 -9 85 -19 2 -5 10 -10 18 -10 8 0 14
-4 14 -10 0 -5 7 -10 15 -10 23 0 18 16 -11 37 -23 17 -25 21 -11 34 8 8 18
29 21 46 6 23 3 32 -10 37 -9 4 -19 4 -22 1 -3 -3 0 -5 6 -5 7 0 12 -6 12 -14
0 -19 -38 -9 -42 12 -3 13 -5 13 -17 -2z"/>
<path d="M5453 1935 c0 -22 2 -30 4 -17 2 12 2 30 0 40 -3 9 -5 -1 -4 -23z"/>
<path d="M4595 1950 c-3 -5 3 -10 14 -10 11 0 23 5 26 10 3 6 -3 10 -14 10
-11 0 -23 -4 -26 -10z"/>
<path d="M5547 1910 c-17 -40 -34 -49 -53 -30 -14 14 -44 2 -44 -16 0 -8 9
-14 19 -14 10 0 21 -6 24 -14 4 -9 14 -12 25 -9 11 2 23 0 26 -6 4 -6 13 -11
21 -11 11 0 13 14 8 68 -3 37 -6 68 -7 69 -1 1 -9 -16 -19 -37z m15 -35 c3
-14 1 -25 -3 -25 -5 0 -9 11 -9 25 0 14 2 25 4 25 2 0 6 -11 8 -25z"/>
<path d="M4590 1915 c0 -8 9 -15 20 -15 11 0 20 7 20 15 0 8 -9 15 -20 15 -11
0 -20 -7 -20 -15z"/>
<path d="M4770 1906 c0 -8 5 -18 10 -21 6 -3 10 3 10 14 0 12 -4 21 -10 21 -5
0 -10 -6 -10 -14z"/>
<path d="M4411 1854 c0 -11 -19 -35 -41 -53 -39 -31 -57 -77 -25 -65 8 4 15
14 15 24 0 19 21 40 65 63 19 10 24 16 13 17 -9 0 -19 8 -21 18 -4 14 -5 13
-6 -4z"/>
<path d="M5360 1851 c0 -5 5 -13 10 -16 6 -3 10 -2 10 4 0 5 -4 13 -10 16 -5
3 -10 2 -10 -4z"/>
<path d="M5402 1840 c0 -14 2 -19 5 -12 2 6 2 18 0 25 -3 6 -5 1 -5 -13z"/>
<path d="M11230 1841 c0 -11 5 -23 10 -26 6 -3 10 -17 10 -30 0 -16 9 -29 28
-39 15 -8 23 -15 19 -16 -5 0 -17 5 -27 10 -11 6 -21 6 -24 1 -5 -8 17 -23 38
-25 5 -1 11 -7 14 -14 3 -10 -4 -9 -28 3 -29 15 -32 15 -27 2 3 -9 1 -17 -5
-19 -7 -3 -8 -14 -3 -34 6 -20 9 -24 12 -12 2 9 13 16 23 15 13 -1 16 -5 10
-11 -6 -6 -10 -21 -10 -34 0 -19 -4 -22 -20 -17 -11 4 -20 2 -20 -4 0 -6 7
-11 15 -11 8 0 15 -4 15 -10 0 -5 -6 -10 -13 -10 -17 0 -47 -149 -47 -236 0
-59 -3 -71 -26 -95 -44 -46 -30 -136 16 -94 14 13 20 31 20 64 0 25 4 52 9 60
13 20 34 2 28 -25 -4 -25 0 -29 19 -16 15 11 34 129 34 219 0 43 7 106 16 138
9 37 14 80 11 112 -6 54 10 83 46 83 27 0 32 22 8 41 -20 16 -114 49 -140 49
-6 0 -11 -9 -11 -19z m90 -191 c0 -5 -2 -10 -4 -10 -3 0 -8 5 -11 10 -3 6 -1
10 4 10 6 0 11 -4 11 -10z m-52 -210 c-9 -66 -13 -100 -17 -149 -1 -11 -4 -11
-17 0 -9 8 -13 21 -10 35 4 13 1 34 -5 47 -9 20 -6 34 21 86 17 35 33 61 35
60 2 -2 -1 -38 -7 -79z"/>
<path d="M4637 1843 c-4 -3 -7 -24 -7 -45 0 -26 4 -38 14 -38 8 0 17 -6 19
-12 3 -7 6 8 6 33 1 44 -17 78 -32 62z"/>
<path d="M4694 1835 c-4 -10 -1 -21 6 -25 8 -5 15 -16 16 -25 5 -33 14 -28 14
7 0 41 -25 71 -36 43z"/>
<path d="M4565 1829 c-4 -5 0 -18 8 -27 8 -9 18 -30 22 -47 8 -28 9 -29 13 -6
10 59 -21 116 -43 80z"/>
<path d="M4755 1808 c4 -18 14 -42 21 -53 14 -19 14 -19 14 2 0 12 -4 24 -9
27 -4 3 -6 17 -3 31 3 19 0 25 -13 25 -14 0 -15 -6 -10 -32z"/>
<path d="M4897 1813 c10 -18 20 -28 22 -22 2 6 -6 21 -19 33 l-21 21 18 -32z"/>
<path d="M4510 1810 c0 -11 4 -20 9 -20 5 0 12 -10 14 -22 2 -13 5 -4 6 20 1
31 -3 42 -14 42 -8 0 -15 -9 -15 -20z"/>
<path d="M4808 1824 c-9 -15 -2 -68 10 -89 10 -17 11 -13 10 27 -1 47 -11 78
-20 62z"/>
<path d="M4851 1770 c0 -30 4 -62 9 -70 12 -19 13 27 1 85 l-9 40 -1 -55z"/>
<path d="M5200 1816 c0 -14 21 -58 26 -54 8 8 -7 58 -17 58 -5 0 -9 -2 -9 -4z"/>
<path d="M4461 1788 c2 -13 1 -27 -2 -33 -3 -5 2 -18 13 -27 17 -17 18 -17 18
10 0 38 -11 72 -22 72 -5 0 -8 -10 -7 -22z"/>
<path d="M4420 1800 c-1 -3 -4 -33 -6 -67 -5 -53 -3 -63 10 -63 12 0 16 10 15
43 -1 37 -14 100 -19 87z"/>
<path d="M4382 1760 c0 -14 2 -19 5 -12 2 6 2 18 0 25 -3 6 -5 1 -5 -13z"/>
<path d="M4882 1720 c0 -14 2 -19 5 -12 2 6 2 18 0 25 -3 6 -5 1 -5 -13z"/>
<path d="M5383 1700 c0 -25 2 -35 4 -22 2 12 2 32 0 45 -2 12 -4 2 -4 -23z"/>
<path d="M4380 1695 c0 -19 5 -35 10 -35 6 0 10 16 10 35 0 19 -4 35 -10 35
-5 0 -10 -16 -10 -35z"/>
<path d="M5031 1711 c-10 -6 -10 -10 -1 -16 13 -8 24 -1 19 14 -3 6 -10 7 -18
2z"/>
<path d="M5486 1711 c17 -14 64 -31 64 -22 0 4 -16 13 -37 19 -20 6 -32 8 -27
3z"/>
<path d="M4356 1701 c-4 -5 -2 -20 3 -33 9 -21 10 -21 10 10 1 32 -3 39 -13
23z"/>
<path d="M4872 1663 c0 -5 -2 -16 -7 -26 -4 -10 -4 -21 -1 -24 4 -4 9 3 13 15
3 12 11 22 18 22 8 0 11 -8 8 -20 -6 -24 12 -27 21 -3 5 11 1 22 -10 30 -19
14 -45 17 -42 6z"/>
<path d="M5271 1643 c1 -15 5 -41 9 -58 7 -26 8 -23 9 22 0 28 -3 55 -9 58 -6
4 -10 -5 -9 -22z"/>
<path d="M5311 1648 c1 -13 5 -36 9 -53 7 -26 8 -22 9 23 0 29 -3 52 -9 52 -5
0 -9 -10 -9 -22z"/>
<path d="M4766 1653 c-12 -12 -6 -33 9 -33 8 0 15 6 15 14 0 17 -14 28 -24 19z"/>
<path d="M4381 1637 c-47 -17 -61 -41 -37 -64 18 -17 18 -17 12 8 -5 24 -1 29
37 47 46 23 41 27 -12 9z"/>
<path d="M4575 1640 c-4 -6 0 -17 8 -23 8 -7 18 -21 20 -32 3 -11 5 -2 4 19
-2 39 -19 58 -32 36z"/>
<path d="M4636 1642 c-2 -4 4 -13 15 -20 16 -11 19 -9 19 8 0 19 -24 28 -34
12z"/>
<path d="M4702 1638 c6 -18 28 -21 28 -4 0 9 -7 16 -16 16 -9 0 -14 -5 -12
-12z"/>
<path d="M4820 1629 c0 -11 5 -17 10 -14 6 3 10 13 10 21 0 8 -4 14 -10 14 -5
0 -10 -9 -10 -21z"/>
<path d="M5161 1598 c0 -32 2 -58 7 -58 4 0 6 19 4 43 -5 70 -10 76 -11 15z"/>
<path d="M5197 1603 c8 -65 13 -67 13 -5 0 29 -4 52 -10 52 -6 0 -7 -19 -3
-47z"/>
<path d="M4515 1630 c-3 -6 1 -17 9 -26 9 -8 16 -27 16 -41 0 -15 3 -24 6 -20
4 3 3 27 0 52 -7 43 -18 56 -31 35z"/>
<path d="M4465 1593 c2 -21 9 -54 14 -73 9 -31 10 -26 8 34 -1 44 -6 71 -14
73 -9 3 -11 -6 -8 -34z"/>
<path d="M4410 1606 c0 -8 5 -18 10 -21 8 -5 7 -11 -1 -21 -9 -11 -9 -24 -1
-52 6 -20 13 -46 16 -57 2 -11 4 8 5 41 1 70 -8 124 -20 124 -5 0 -9 -6 -9
-14z"/>
<path d="M5053 1565 c0 -33 2 -45 4 -27 2 18 2 45 0 60 -2 15 -4 0 -4 -33z"/>
<path d="M4370 1601 c0 -6 5 -13 10 -16 6 -3 10 1 10 9 0 9 -4 16 -10 16 -5 0
-10 -4 -10 -9z"/>
<path d="M4726 1602 c-2 -4 -1 -14 5 -22 7 -12 9 -10 9 8 0 23 -5 28 -14 14z"/>
<path d="M4775 1590 c3 -5 8 -10 11 -10 2 0 4 5 4 10 0 6 -5 10 -11 10 -5 0
-7 -4 -4 -10z"/>
<path d="M4820 1580 c6 -11 13 -20 15 -20 3 0 5 9 5 20 0 11 -7 20 -15 20 -13
0 -14 -4 -5 -20z"/>
<path d="M4861 1565 c0 -16 4 -48 8 -70 l9 -40 1 55 c0 30 -4 62 -9 70 -7 11
-10 8 -9 -15z"/>
<path d="M5393 1550 c0 -25 2 -35 4 -22 2 12 2 32 0 45 -2 12 -4 2 -4 -23z"/>
<path d="M9302 1578 c3 -7 17 -14 32 -15 37 -3 29 21 -8 25 -20 3 -27 0 -24
-10z"/>
<path d="M4892 1560 c0 -14 2 -19 5 -12 2 6 2 18 0 25 -3 6 -5 1 -5 -13z"/>
<path d="M9187 1573 c-14 -13 -6 -23 18 -23 18 0 23 4 19 15 -6 16 -26 20 -37
8z"/>
<path d="M9240 1571 c0 -12 29 -23 41 -15 5 3 7 10 4 15 -8 12 -45 12 -45 0z"/>
<path d="M4381 1533 c1 -21 5 -51 9 -68 6 -23 8 -15 9 38 1 39 -3 67 -9 67 -5
0 -9 -17 -9 -37z"/>
<path d="M9127 1564 c-14 -14 -6 -24 19 -24 16 0 24 5 22 13 -5 14 -31 21 -41
11z"/>
<path d="M5322 1535 c0 -16 3 -39 8 -50 l9 -20 -1 20 c0 11 -4 34 -8 50 l-8
30 0 -30z"/>
<path d="M9077 1553 c-4 -3 -7 -10 -7 -14 0 -11 29 -19 35 -10 6 11 -20 33
-28 24z"/>
<path d="M5281 1525 c0 -16 4 -39 9 -50 7 -16 9 -14 9 15 0 19 -4 42 -9 50 -7
11 -10 8 -9 -15z"/>
<path d="M4346 1533 c-9 -10 -7 -25 3 -19 5 4 12 0 14 -6 4 -8 6 -7 6 4 1 19
-13 31 -23 21z"/>
<path d="M5201 1513 c0 -16 4 -37 9 -48 6 -15 9 -8 9 28 1 26 -3 47 -9 47 -5
0 -10 -12 -9 -27z"/>
<path d="M9010 1528 c0 -8 12 -15 26 -16 17 -1 24 2 22 11 -6 17 -48 22 -48 5z"/>
<path d="M4542 1510 c0 -14 2 -19 5 -12 2 6 2 18 0 25 -3 6 -5 1 -5 -13z"/>
<path d="M5166 1488 c9 -59 14 -60 14 -5 0 26 -5 47 -10 47 -6 0 -8 -16 -4
-42z"/>
<path d="M8967 1515 c-9 -8 -22 -12 -30 -9 -8 3 -18 1 -22 -5 -3 -6 -15 -11
-26 -11 -21 0 -26 -15 -7 -26 6 -4 17 0 23 10 7 9 19 14 28 10 8 -3 18 -1 22
5 3 6 15 11 26 11 20 0 26 15 10 25 -5 3 -16 -2 -24 -10z"/>
<path d="M5052 1480 c0 -14 2 -19 5 -12 2 6 2 18 0 25 -3 6 -5 1 -5 -13z"/>
<path d="M8830 1459 c0 -6 -7 -9 -15 -6 -8 4 -17 2 -20 -4 -4 -5 2 -12 11 -16
10 -4 19 -2 22 5 2 7 13 12 23 12 11 0 17 5 14 10 -8 14 -35 13 -35 -1z"/>
<path d="M5285 1440 c-3 -5 -2 -10 4 -10 5 0 13 5 16 10 3 6 2 10 -4 10 -5 0
-13 -4 -16 -10z"/>
<path d="M4342 1420 c0 -14 2 -19 5 -12 2 6 2 18 0 25 -3 6 -5 1 -5 -13z"/>
<path d="M4880 1435 c0 -3 11 -10 25 -15 16 -6 25 -17 25 -30 0 -12 5 -18 10
-15 19 12 10 35 -20 50 -31 16 -40 18 -40 10z"/>
<path d="M8766 1433 c-11 -11 -6 -23 9 -23 8 0 15 4 15 9 0 13 -16 22 -24 14z"/>
<path d="M9275 1430 c3 -5 8 -10 11 -10 2 0 4 5 4 10 0 6 -5 10 -11 10 -5 0
-7 -4 -4 -10z"/>
<path d="M4651 1416 c-9 -11 -7 -15 8 -19 11 -2 21 -15 24 -28 3 -20 5 -18 6
7 1 38 -20 61 -38 40z"/>
<path d="M4714 1419 c-8 -14 18 -31 30 -19 9 9 0 30 -14 30 -5 0 -12 -5 -16
-11z"/>
<path d="M5170 1420 c-13 -8 -12 -10 3 -10 9 0 17 5 17 10 0 12 -1 12 -20 0z"/>
<path d="M5205 1420 c3 -5 8 -10 11 -10 2 0 4 5 4 10 0 6 -5 10 -11 10 -5 0
-7 -4 -4 -10z"/>
<path d="M4593 1413 c-18 -6 -16 -23 1 -23 8 0 17 -10 19 -22 3 -17 5 -15 6 9
1 34 -6 43 -26 36z"/>
<path d="M4772 1408 c6 -18 28 -21 28 -4 0 9 -7 16 -16 16 -9 0 -14 -5 -12
-12z"/>
<path d="M4835 1407 c-4 -10 -5 -21 -1 -24 10 -10 18 4 13 24 -4 17 -4 17 -12
0z"/>
<path d="M8730 1411 c0 -6 -5 -11 -11 -11 -14 0 -39 -25 -39 -39 0 -6 -5 -11
-10 -11 -17 0 -80 -68 -80 -85 0 -10 20 4 53 37 61 62 93 88 108 88 14 0 6 23
-9 28 -7 2 -12 -1 -12 -7z"/>
<path d="M9158 1413 c7 -3 16 -2 19 1 4 3 -2 6 -13 5 -11 0 -14 -3 -6 -6z"/>
<path d="M4363 1390 c-38 -23 -42 -44 -12 -61 20 -10 21 -9 15 14 -3 14 -2 29
4 32 5 3 10 -1 10 -9 0 -8 5 -18 12 -22 8 -5 9 0 5 16 -3 13 -1 30 5 37 15 19
-2 16 -39 -7z"/>
<path d="M4525 1399 c-4 -5 0 -18 8 -27 8 -9 17 -24 20 -32 8 -21 8 19 1 48
-7 24 -19 29 -29 11z"/>
<path d="M4882 1390 c0 -14 2 -19 5 -12 2 6 2 18 0 25 -3 6 -5 1 -5 -13z"/>
<path d="M5045 1400 c3 -5 8 -10 11 -10 2 0 4 5 4 10 0 6 -5 10 -11 10 -5 0
-7 -4 -4 -10z"/>
<path d="M9044 1399 c-8 -14 4 -59 16 -59 6 0 10 3 10 8 0 4 3 17 6 28 6 23
-20 42 -32 23z"/>
<path d="M4470 1380 c0 -11 5 -20 11 -20 8 0 8 -4 1 -13 -7 -8 -6 -19 3 -37
l14 -25 1 35 c0 44 -10 80 -21 80 -5 0 -9 -9 -9 -20z"/>
<path d="M5335 1358 c-3 -24 -2 -61 3 -83 9 -36 10 -32 11 43 1 90 -4 106 -14
40z"/>
<path d="M5290 1380 c-13 -8 -12 -10 3 -10 9 0 17 5 17 10 0 12 -1 12 -20 0z"/>
<path d="M4420 1372 c0 -4 6 -14 12 -20 10 -10 10 -14 0 -21 -9 -5 -11 -23 -6
-64 4 -31 11 -54 15 -51 10 6 12 107 3 142 -6 21 -24 32 -24 14z"/>
<path d="M5221 1364 c0 -11 3 -14 6 -6 3 7 2 16 -1 19 -3 4 -6 -2 -5 -13z"/>
<path d="M5245 1370 c-3 -5 -2 -10 4 -10 5 0 13 5 16 10 3 6 2 10 -4 10 -5 0
-13 -4 -16 -10z"/>
<path d="M4790 1361 c0 -6 5 -13 10 -16 6 -3 10 1 10 9 0 9 -4 16 -10 16 -5 0
-10 -4 -10 -9z"/>
<path d="M4830 1363 c0 -5 4 -15 10 -23 11 -18 25 -7 17 15 -6 15 -27 21 -27
8z"/>
<path d="M4877 1354 c-4 -7 0 -29 7 -50 12 -31 15 -34 14 -14 0 38 -13 76 -21
64z"/>
<path d="M5058 1353 c-2 -5 0 -42 3 -83 l5 -75 2 83 c2 74 -1 96 -10 75z"/>
<path d="M5413 1300 c0 -36 2 -50 4 -32 2 17 2 47 0 65 -2 17 -4 3 -4 -33z"/>
<path d="M5295 1321 c1 -17 2 -65 3 -106 1 -41 6 -75 10 -75 10 0 3 192 -8
203 -4 4 -6 -6 -5 -22z"/>
<path d="M11400 1316 c30 -54 13 -65 -67 -40 -10 3 -6 -2 10 -11 39 -22 36
-46 -5 -40 l-33 5 27 -12 c37 -16 42 -36 19 -83 -14 -30 -16 -44 -8 -66 6 -15
15 -26 19 -23 4 3 8 -2 8 -10 0 -22 32 -86 43 -86 4 0 18 5 30 11 18 9 20 9
10 -2 -16 -16 -17 -39 -2 -39 7 0 18 8 25 18 14 19 12 21 29 -33 2 -8 10 -15
16 -15 11 0 7 57 -7 93 -3 8 3 23 14 33 11 11 23 35 27 54 11 52 21 60 56 48
17 -6 32 -8 35 -5 3 3 -11 10 -31 17 -44 15 -44 42 0 51 l30 7 -32 1 c-21 1
-36 8 -43 20 -8 16 -5 23 18 40 l27 21 -32 -11 c-18 -6 -33 -15 -33 -20 0 -6
-11 -2 -24 8 -19 15 -23 25 -20 58 l4 40 -13 -35 c-16 -41 -61 -55 -71 -23 -4
10 -16 29 -27 43 -21 24 -21 24 1 -14z m100 -101 c29 -15 50 -43 50 -65 0 -7
-17 2 -38 18 -33 27 -43 29 -86 25 -47 -6 -48 -5 -37 16 14 26 67 29 111 6z
m-7 -51 c18 -24 18 -25 2 -22 -26 4 -31 -22 -6 -29 29 -8 26 -27 -9 -57 -44
-36 -80 -14 -80 48 0 21 5 26 25 26 29 0 33 15 8 29 -16 9 -16 11 7 20 34 13
33 14 53 -15z"/>
<path d="M11425 1082 c-7 -20 -7 -22 10 -22 8 0 19 9 25 19 8 17 7 20 -10 18
-11 -1 -22 -7 -25 -15z"/>
<path d="M4912 1310 c0 -19 2 -27 5 -17 2 9 2 25 0 35 -3 9 -5 1 -5 -18z"/>
<path d="M2898 1308 c-3 -7 1 -24 8 -37 12 -22 12 -22 12 13 0 35 -11 49 -20
24z"/>
<path d="M4391 1281 c-1 -34 2 -42 11 -33 8 8 8 20 1 44 l-11 33 -1 -44z"/>
<path d="M8770 1301 c0 -11 5 -23 10 -26 6 -4 10 5 10 19 0 14 -4 26 -10 26
-5 0 -10 -9 -10 -19z"/>
<path d="M4361 1294 c0 -11 3 -14 6 -6 3 7 2 16 -1 19 -3 4 -6 -2 -5 -13z"/>
<path d="M5178 1303 c-2 -5 -1 -26 3 -48 l6 -40 2 48 c1 44 -3 57 -11 40z"/>
<path d="M5218 1273 c5 -59 10 -63 11 -10 1 26 -3 47 -7 47 -4 0 -6 -17 -4
-37z"/>
<path d="M9458 1261 c12 -7 62 -4 62 5 0 2 -17 4 -37 4 -24 0 -33 -3 -25 -9z"/>
<path d="M7668 1253 c7 -3 16 -2 19 1 4 3 -2 6 -13 5 -11 0 -14 -3 -6 -6z"/>
<path d="M9170 1235 c0 -8 7 -15 15 -15 8 0 15 4 15 9 0 5 -7 11 -15 15 -9 3
-15 0 -15 -9z"/>
<path d="M9530 1214 c0 -22 -4 -34 -8 -27 -15 24 -255 35 -402 19 -25 -3 -73
-8 -107 -12 -35 -4 -63 -10 -63 -14 0 -3 -15 -7 -32 -7 -18 0 -43 -3 -55 -6
-118 -31 -159 -46 -226 -79 -87 -43 -160 -110 -188 -173 -20 -43 -25 -85 -10
-85 5 0 11 10 15 23 5 18 8 20 16 7 9 -13 10 -13 11 0 1 8 1 17 1 20 0 3 9 17
20 30 l20 25 -6 -27 c-4 -16 -3 -28 2 -28 11 0 34 49 27 59 -8 14 26 38 120
86 100 51 101 55 1 20 -39 -13 -71 -23 -73 -21 -6 6 97 68 129 77 63 19 176
48 234 59 100 20 108 21 153 21 24 1 53 4 65 8 11 5 34 5 49 0 16 -4 85 -9
153 -10 123 -2 125 -2 138 -27 13 -25 14 -25 20 -5 9 28 11 92 3 100 -4 3 -7
-11 -7 -33z"/>
<path d="M2920 1232 c0 -5 6 -15 14 -21 12 -10 14 -9 12 5 -3 19 -26 33 -26
16z"/>
<path d="M7526 1231 c-3 -5 -8 -23 -10 -42 -3 -19 -14 -54 -26 -77 -23 -46
-21 -63 5 -42 19 16 19 9 1 -35 -16 -38 -31 -48 -20 -13 6 20 5 21 -10 6 -20
-21 -38 -67 -30 -79 3 -6 12 -2 19 8 21 28 28 9 10 -26 -17 -34 -35 -41 -35
-14 0 14 -3 13 -16 -5 -8 -12 -12 -27 -9 -32 4 -6 -13 -10 -44 -10 -50 0 -51
-1 -51 -29 0 -28 2 -29 63 -36 34 -4 94 -9 133 -10 39 -1 76 -5 83 -10 10 -6
12 0 6 24 -7 31 -7 31 32 27 21 -2 70 -7 108 -11 69 -7 105 -24 105 -51 0 -7
8 -13 18 -13 9 1 40 -3 67 -7 28 -5 72 -9 100 -9 43 0 51 3 62 25 12 24 12 25
-36 35 -29 6 -46 15 -44 22 2 6 -3 23 -13 37 -9 14 -12 26 -6 26 10 0 8 9 -16
80 -3 8 -6 30 -8 49 -2 19 -7 46 -13 60 -5 14 -12 47 -16 73 -3 26 -9 49 -13
52 -4 2 -27 6 -52 7 -43 4 -45 3 -51 -26 l-7 -30 -1 31 c-1 28 -5 32 -38 38
-21 3 -57 6 -80 6 -47 0 -42 8 -63 -100 -5 -25 -14 -65 -20 -90 -6 -25 -16
-65 -21 -89 -5 -25 -16 -52 -24 -61 -8 -9 -12 -20 -8 -23 3 -4 -2 -7 -12 -7
-14 0 -15 3 -5 15 7 9 10 18 7 22 -4 3 -3 11 2 17 9 11 44 129 61 206 5 19 13
50 19 69 6 19 8 37 6 41 -7 11 -103 11 -109 1z m54 -41 c0 -5 -2 -10 -4 -10
-3 0 -8 5 -11 10 -3 6 -1 10 4 10 6 0 11 -4 11 -10z m255 -112 c2 -31 6 -62
10 -68 4 -7 9 -31 10 -54 1 -22 6 -60 10 -83 4 -25 4 -43 -2 -43 -5 0 -9 8
-10 18 0 9 -10 79 -20 155 -12 81 -16 136 -10 134 6 -2 11 -28 12 -59z m-318
30 c-3 -8 -6 -5 -6 6 -1 11 2 17 5 13 3 -3 4 -12 1 -19z m33 -18 c0 -5 -5 -10
-11 -10 -5 0 -7 5 -4 10 3 6 8 10 11 10 2 0 4 -4 4 -10z m240 -5 c4 -3 11 -58
15 -122 4 -69 12 -121 19 -126 6 -5 -7 -6 -29 -3 -22 3 -75 8 -117 12 -43 3
-78 11 -78 16 0 6 9 52 20 102 12 50 23 102 26 115 5 23 7 23 71 17 37 -4 70
-9 73 -11z m120 -35 c0 -5 -2 -10 -4 -10 -3 0 -8 5 -11 10 -3 6 -1 10 4 10 6
0 11 -4 11 -10z m-400 -80 c0 -5 -2 -10 -4 -10 -3 0 -8 5 -11 10 -3 6 -1 10 4
10 6 0 11 -4 11 -10z m420 -40 c0 -5 -4 -10 -10 -10 -5 0 -10 5 -10 10 0 6 5
10 10 10 6 0 10 -4 10 -10z m-421 -66 c9 -9 -55 -3 -69 6 -11 7 -3 8 25 4 22
-3 42 -8 44 -10z m-89 -18 c0 -2 -7 -6 -15 -10 -8 -3 -15 -1 -15 4 0 6 7 10
15 10 8 0 15 -2 15 -4z m520 -19 c8 -3 1 -6 -17 -6 -25 -1 -31 2 -27 14 4 10
10 12 18 7 6 -5 18 -12 26 -15z m-380 -1 c0 -3 -4 -8 -10 -11 -5 -3 -10 -1
-10 4 0 6 5 11 10 11 6 0 10 -2 10 -4z m420 -6 c0 -5 -4 -10 -10 -10 -5 0 -10
5 -10 10 0 6 5 10 10 10 6 0 10 -4 10 -10z"/>
<path d="M7905 1230 c3 -5 8 -10 11 -10 2 0 4 5 4 10 0 6 -5 10 -11 10 -5 0
-7 -4 -4 -10z"/>
<path d="M5341 1193 c-1 -23 4 -45 9 -48 12 -7 12 29 0 65 -7 21 -8 19 -9 -17z"/>
<path d="M8623 1214 c-7 -7 -13 -21 -13 -31 1 -13 5 -10 16 10 17 32 16 42 -3
21z"/>
<path d="M4915 1208 c12 -7 19 -20 17 -29 -5 -26 25 -31 32 -6 7 26 0 34 -39
42 -28 6 -28 5 -10 -7z"/>
<path d="M5416 1207 c3 -10 9 -15 12 -12 3 3 0 11 -7 18 -10 9 -11 8 -5 -6z"/>
<path d="M5180 1167 c0 -26 5 -47 10 -47 6 0 8 17 5 42 -7 58 -15 60 -15 5z"/>
<path d="M5220 1172 c0 -23 5 -42 10 -42 7 0 8 14 4 38 -9 51 -14 53 -14 4z"/>
<path d="M4181 1188 c-1 -11 -17 -21 -48 -30 l-47 -13 27 -18 c25 -16 27 -16
27 -1 0 12 4 14 13 7 20 -17 42 -11 54 14 9 18 8 23 -2 23 -8 0 -16 8 -18 18
-4 15 -5 15 -6 0z"/>
<path d="M4409 1191 c-66 -21 -85 -45 -53 -72 14 -11 16 -10 14 6 -4 36 0 40
14 14 7 -14 11 -39 9 -56 -3 -17 0 -34 7 -38 14 -8 12 79 -2 107 -7 14 -2 21
24 32 36 16 29 19 -13 7z"/>
<path d="M4660 1187 c0 -8 6 -17 14 -20 8 -3 17 -16 19 -29 3 -13 4 -5 4 17
-2 29 -7 41 -19 43 -11 2 -18 -3 -18 -11z"/>
<path d="M4727 1194 c-9 -10 2 -24 19 -24 8 0 14 7 14 15 0 15 -21 21 -33 9z"/>
<path d="M4790 1180 c0 -13 5 -20 13 -17 6 2 12 10 12 17 0 7 -6 15 -12 18 -8
2 -13 -5 -13 -18z"/>
<path d="M4847 1186 c-6 -16 2 -28 14 -20 12 7 11 34 0 34 -5 0 -11 -6 -14
-14z"/>
<path d="M4894 1189 c-3 -6 -1 -16 5 -22 8 -8 11 -5 11 11 0 24 -5 28 -16 11z"/>
<path d="M4534 1176 c-4 -10 -2 -21 5 -25 6 -4 14 -21 17 -37 9 -49 17 -41 10
11 -7 55 -22 78 -32 51z"/>
<path d="M4590 1175 c0 -8 6 -15 14 -15 8 0 17 -10 19 -22 3 -14 5 -9 6 15 1
31 -2 37 -19 37 -11 0 -20 -7 -20 -15z"/>
<path d="M8860 1179 c0 -5 5 -7 10 -4 6 3 10 8 10 11 0 2 -4 4 -10 4 -5 0 -10
-5 -10 -11z"/>
<path d="M3020 1170 c-11 -7 -7 -10 18 -10 17 0 32 5 32 10 0 13 -30 13 -50 0z"/>
<path d="M4470 1166 c0 -8 5 -18 10 -21 8 -5 8 -11 0 -20 -8 -9 -8 -14 0 -17
7 -2 15 -28 20 -58 l8 -55 1 67 c1 69 -11 118 -29 118 -5 0 -10 -6 -10 -14z"/>
<path d="M4424 1154 c4 -11 9 -52 12 -93 5 -108 15 -101 12 9 -2 69 -7 95 -17
98 -10 3 -12 0 -7 -14z"/>
<path d="M5069 1128 c-1 -18 -3 -53 -4 -78 -1 -25 2 -52 6 -60 5 -9 9 23 9 78
0 50 -2 92 -5 92 -3 0 -6 -15 -6 -32z"/>
<path d="M4800 1143 c0 -5 5 -15 10 -23 8 -12 10 -11 10 8 0 12 -4 22 -10 22
-5 0 -10 -3 -10 -7z"/>
<path d="M4853 1142 c-8 -5 -8 -12 3 -26 13 -19 14 -19 14 7 0 30 0 30 -17 19z"/>
<path d="M9148 1140 c-141 -10 -92 -18 97 -17 147 2 187 -1 194 -12 5 -8 11
-9 15 -3 13 22 -26 33 -125 35 -57 2 -139 0 -181 -3z"/>
<path d="M11259 1124 c-19 -14 -43 -30 -53 -36 -16 -9 -18 -7 -13 6 6 14 3 15
-15 5 -17 -9 -23 -9 -26 0 -3 8 -9 5 -19 -8 -8 -12 -12 -30 -8 -42 4 -11 1
-26 -5 -34 -9 -10 -7 -20 6 -40 14 -21 15 -30 5 -51 -6 -14 -9 -30 -5 -35 3
-6 -1 -18 -9 -27 -13 -15 -14 -24 -2 -67 l13 -50 30 65 c17 36 44 85 61 110
36 52 41 77 8 39 -19 -23 -67 -46 -67 -32 0 17 37 63 47 59 7 -3 15 -1 18 4 3
4 1 10 -5 12 -6 2 -2 19 10 43 24 48 25 51 3 34 -16 -13 -17 -12 -4 4 10 12
22 16 37 13 13 -4 26 -1 30 6 5 8 2 9 -11 4 -18 -7 -18 -6 0 14 28 31 13 33
-26 4z"/>
<path d="M4891 1120 c0 -14 4 -45 8 -70 l8 -45 2 55 c0 30 -4 62 -9 70 -8 12
-10 10 -9 -10z"/>
<path d="M5306 1122 c-2 -4 -1 -14 3 -21 6 -9 10 -7 14 8 5 20 -7 29 -17 13z"/>
<path d="M5340 1120 c0 -5 4 -10 9 -10 6 0 13 5 16 10 3 6 -1 10 -9 10 -9 0
-16 -4 -16 -10z"/>
<path d="M8933 1118 c-24 -5 -43 -13 -43 -17 0 -5 19 -5 43 0 23 4 59 8 80 9
20 0 37 5 37 10 0 12 -60 11 -117 -2z"/>
<path d="M9480 1120 c0 -5 5 -9 12 -7 6 1 14 -9 18 -23 3 -14 9 -20 12 -15 9
16 -10 55 -27 55 -8 0 -15 -4 -15 -10z"/>
<path d="M5267 1113 c-3 -5 -1 -17 3 -28 6 -17 7 -16 12 8 5 25 -5 37 -15 20z"/>
<path d="M5187 1103 c-10 -9 -9 -23 2 -23 5 0 11 7 15 15 5 15 -5 20 -17 8z"/>
<path d="M5220 1100 c0 -5 5 -10 10 -10 6 0 10 5 10 10 0 6 -4 10 -10 10 -5 0
-10 -4 -10 -10z"/>
<path d="M8813 1092 c-63 -18 -72 -34 -10 -20 23 6 50 11 60 12 17 0 23 12 10
19 -5 2 -32 -3 -60 -11z"/>
<path d="M4363 1085 c-15 -17 -17 -29 -4 -20 5 3 12 -3 14 -12 3 -10 5 -3 6
15 1 36 1 37 -16 17z"/>
<path d="M5140 1091 c0 -17 18 -21 24 -6 3 9 0 15 -9 15 -8 0 -15 -4 -15 -9z"/>
<path d="M9123 1088 c-24 -12 -26 -21 -14 -51 6 -17 8 -17 20 -3 7 9 26 16 42
16 35 0 37 13 7 34 -26 18 -25 18 -55 4z"/>
<path d="M9306 1079 c-14 -11 -26 -29 -26 -40 0 -11 -4 -17 -10 -14 -15 9 -12
-7 5 -29 13 -17 15 -17 15 -4 0 28 51 60 87 56 38 -5 41 4 13 32 -26 26 -51
25 -84 -1z"/>
<path d="M4193 1077 c4 -11 -6 -18 -39 -26 -51 -13 -60 -26 -11 -17 51 10 62
-11 83 -151 9 -68 22 -123 26 -123 5 0 7 3 5 8 -11 16 -39 246 -34 271 4 20 0
30 -15 40 -18 11 -20 11 -15 -2z"/>
<path d="M4933 1050 c0 -25 2 -35 4 -22 2 12 2 32 0 45 -2 12 -4 2 -4 -23z"/>
<path d="M5967 1061 c-41 -20 -70 -62 -65 -97 1 -12 -4 -29 -12 -39 -12 -14
-15 -46 -14 -144 1 -69 6 -137 12 -151 10 -24 11 -23 12 15 1 32 3 36 10 20
l9 -20 1 20 c1 19 1 19 15 2 7 -11 12 -24 10 -30 -2 -7 -6 -24 -9 -38 -3 -15
-14 -29 -25 -32 -16 -4 -18 -12 -13 -56 4 -41 2 -51 -10 -51 -9 0 -26 -8 -39
-18 -13 -10 -49 -32 -79 -48 -30 -16 -62 -38 -71 -49 -16 -19 -17 -18 -28 20
-6 22 -11 61 -11 87 0 38 3 46 15 42 8 -4 15 -4 15 -1 0 14 -24 57 -32 57 -4
0 -8 9 -8 21 0 11 5 17 10 14 6 -3 10 -1 10 4 0 6 -4 11 -10 11 -18 0 -12 67
8 75 16 6 16 7 -2 20 -18 14 -22 34 -25 159 -1 16 -6 17 -37 11 -43 -8 -58
-21 -67 -58 -4 -15 -10 -38 -13 -51 -5 -21 -3 -24 15 -19 12 3 21 11 21 18 0
7 7 18 15 25 12 10 17 7 26 -16 6 -16 13 -42 16 -58 6 -27 4 -29 -21 -24 -14
3 -28 2 -31 -2 -2 -4 -27 -6 -55 -6 -54 1 -71 -13 -17 -16 17 0 39 -1 47 -2
10 -1 16 -14 18 -41 2 -22 8 -44 14 -50 7 -7 9 3 6 33 -2 23 0 42 4 42 5 0 8
-18 8 -40 0 -22 5 -40 10 -40 6 0 8 17 5 43 -5 42 -5 42 5 7 6 -19 12 -52 14
-72 4 -36 3 -38 -24 -38 l-29 0 3 -72 4 -73 31 3 c17 2 31 -1 31 -6 0 -13 -25
-22 -61 -22 -21 0 -29 -5 -29 -17 0 -14 2 -15 9 -4 6 10 10 10 16 1 4 -6 13
-9 21 -6 7 3 16 1 19 -3 2 -5 -11 -12 -31 -15 -30 -6 -34 -9 -23 -22 11 -13
10 -15 -7 -12 -10 1 -18 -2 -17 -8 1 -6 -8 -9 -21 -7 -24 5 -44 -12 -31 -25 4
-4 10 -2 12 4 2 6 27 10 63 8 33 -1 62 2 66 7 3 5 13 5 24 -1 26 -14 33 -13
27 4 -4 9 3 16 15 20 23 6 50 -5 49 -20 -2 -16 53 -12 87 7 40 23 52 24 52 5
0 -10 7 -12 22 -8 18 4 20 2 15 -17 -3 -14 -1 -21 6 -18 7 2 14 14 15 28 6 38
20 50 43 36 11 -7 17 -17 15 -24 -3 -6 3 -12 12 -12 9 0 30 -3 46 -7 21 -5 27
-4 22 5 -4 6 -3 11 3 11 5 0 15 -8 20 -17 9 -15 11 -13 11 12 1 17 4 25 6 19
3 -7 15 -10 27 -7 18 4 19 3 7 -6 -12 -9 -10 -11 11 -11 14 0 31 -6 38 -13 11
-9 10 -7 0 13 -8 14 -20 33 -28 43 -9 10 -10 17 -3 17 6 0 16 -8 21 -18 6 -9
11 -13 11 -9 0 4 9 3 21 -3 15 -8 24 -8 34 0 15 12 35 6 35 -11 0 -5 -8 -9
-17 -10 -15 0 -14 -2 4 -11 17 -8 29 -6 57 12 30 18 36 19 36 6 0 -19 16 -21
23 -3 3 9 10 7 25 -7 27 -23 82 -15 62 9 -11 13 -8 13 26 1 22 -7 54 -11 72
-9 22 4 32 1 32 -7 0 -9 7 -7 20 5 11 10 17 22 13 28 -3 6 -1 7 6 3 6 -4 18
-2 26 4 11 9 15 9 16 1 3 -26 4 -30 11 -35 5 -3 6 -3 3 1 -4 5 11 17 52 38 6
4 31 -3 55 -14 25 -11 54 -18 65 -15 11 3 39 -4 61 -15 49 -25 59 -26 37 -5
-19 19 -12 32 9 15 11 -9 17 -8 29 4 9 8 17 11 19 7 2 -4 18 -16 37 -26 19
-10 31 -14 27 -7 -8 13 34 6 66 -11 13 -6 16 -5 12 5 -4 12 6 12 62 0 37 -7
75 -18 85 -24 15 -8 19 -6 19 8 0 14 2 15 9 4 5 -7 25 -15 44 -16 34 -3 35 -2
24 17 -9 16 -9 22 1 25 6 3 12 16 12 29 0 17 -6 24 -20 24 -45 0 -1 73 73 123
155 104 359 50 444 -117 24 -48 25 -51 8 -79 -9 -16 -13 -32 -9 -37 17 -14 79
-29 157 -36 62 -5 77 -4 77 7 1 10 4 10 13 -3 10 -13 27 -16 80 -13 37 1 70
-1 73 -6 3 -5 23 -7 45 -4 22 3 49 0 60 -5 13 -8 19 -7 19 0 0 6 4 9 9 6 9 -6
21 16 21 38 0 7 -16 29 -35 49 -21 22 -35 46 -35 61 0 19 -5 25 -17 23 -10 -1
-20 3 -23 8 -3 6 7 11 23 13 34 4 37 32 3 32 -14 0 -28 -5 -31 -10 -4 -6 -10
-8 -15 -5 -5 3 -18 1 -29 -5 -11 -5 -22 -6 -25 -1 -17 27 179 61 319 56 55 -2
148 -7 208 -10 66 -4 107 -3 107 3 0 13 -132 21 -345 21 -200 0 -237 -2 -278
-18 -28 -11 -31 -15 -41 -63 -9 -41 -21 -34 -52 29 -16 32 -32 61 -37 64 -5 3
-8 8 -7 10 1 2 -2 17 -6 34 -6 25 -8 27 -14 10 -6 -17 -7 -16 -12 7 -3 16 -1
25 4 22 5 -4 4 3 -4 15 -7 12 -20 22 -28 22 -8 1 -30 3 -49 5 -58 4 -55 20 4
17 30 -1 55 2 55 6 0 5 -12 9 -27 9 -16 0 -38 2 -50 5 -23 6 -63 -21 -63 -42
0 -6 9 -28 20 -48 11 -21 20 -44 20 -51 0 -7 7 -15 15 -18 8 -4 15 -18 15 -34
0 -16 6 -35 13 -42 7 -7 14 -17 15 -23 9 -43 24 -58 36 -32 5 9 7 9 12 0 9
-21 6 -27 -19 -30 -20 -3 -28 6 -52 59 -56 122 -203 238 -320 254 -72 10 -85
14 -85 29 0 8 -5 15 -11 15 -6 0 -9 -7 -5 -15 6 -15 -4 -19 -79 -29 -95 -13
-234 -113 -280 -203 -10 -21 -20 -40 -21 -42 -2 -1 -7 0 -13 3 -5 4 1 23 15
49 24 40 35 60 52 91 4 8 21 35 39 60 52 75 50 81 -34 83 l-73 3 -25 -38 c-14
-22 -23 -46 -20 -54 4 -9 1 -19 -4 -23 -6 -3 -9 -11 -6 -16 4 -5 -3 -9 -13 -9
-13 0 -19 -6 -18 -17 0 -10 -4 -18 -11 -18 -20 0 -28 -16 -13 -25 13 -8 12
-10 -2 -10 -9 0 -19 4 -23 9 -3 5 -26 -2 -51 -16 -49 -28 -93 -27 -126 4 -10
9 -28 21 -41 28 -13 6 -21 19 -20 31 1 10 -7 39 -19 64 -12 25 -23 70 -26 100
-2 30 -10 61 -16 69 -6 8 -12 56 -12 110 -2 110 -9 141 -34 141 -14 0 -18 -12
-23 -67 -4 -38 -7 -89 -7 -115 0 -37 -4 -48 -16 -48 -24 0 -54 19 -54 35 0 15
-29 28 -51 23 -15 -3 -36 92 -38 173 -1 57 -15 75 -71 89 -25 7 -51 17 -58 23
-8 6 -69 10 -159 9 -112 0 -152 3 -167 14 -28 19 -102 16 -149 -5z m-62 -151
c3 -5 1 -10 -4 -10 -6 0 -11 5 -11 10 0 6 2 10 4 10 3 0 8 -4 11 -10z m15
-200 c0 -11 -7 -20 -15 -20 -18 0 -19 12 -3 28 16 16 18 15 18 -8z m92 -68 c3
-11 0 -19 -8 -19 -8 0 -14 9 -14 19 0 10 4 18 9 18 5 0 11 -8 13 -18z m-15
-64 c-3 -8 -6 -5 -6 6 -1 11 2 17 5 13 3 -3 4 -12 1 -19z m688 -6 c-8 -8 -25
10 -19 20 4 6 9 5 15 -3 4 -7 6 -15 4 -17z m595 -42 c0 -5 -2 -10 -4 -10 -3 0
-8 5 -11 10 -3 6 -1 10 4 10 6 0 11 -4 11 -10z m-10 -54 c0 -18 -39 -28 -59
-16 -14 8 -14 9 0 10 9 0 22 7 29 15 14 16 30 11 30 -9z m234 10 c-10 -8 -21
-12 -24 -10 -5 6 21 24 34 24 6 0 1 -6 -10 -14z m-1902 -36 c3 -17 1 -33 -4
-36 -4 -3 -8 11 -8 30 0 44 6 47 12 6z m2278 0 c0 -5 -5 -10 -11 -10 -5 0 -7
5 -4 10 3 6 8 10 11 10 2 0 4 -4 4 -10z m-667 -27 c-6 -15 13 -18 22 -3 3 6
12 10 18 10 7 0 4 -6 -5 -14 -10 -7 -15 -16 -11 -19 3 -4 2 -7 -3 -8 -82 -7
-96 -1 -66 29 22 22 53 25 45 5z m892 -92 c8 -17 11 -32 6 -35 -4 -3 -13 6
-20 20 -22 48 -10 61 14 15z m-827 -21 c-12 -22 -23 -38 -25 -36 -5 5 34 76
42 76 2 0 -6 -18 -17 -40z m722 25 c7 -9 8 -15 2 -15 -5 0 -12 7 -16 15 -3 8
-4 15 -2 15 2 0 9 -7 16 -15z m180 -9 c0 -2 -8 -10 -17 -17 -16 -13 -17 -12
-4 4 13 16 21 21 21 13z m-1450 -59 c0 -5 -4 -5 -10 -2 -5 3 -10 14 -10 23 0
15 2 15 10 2 5 -8 10 -19 10 -23z m1290 17 c0 -8 -4 -12 -10 -9 -5 3 -10 10
-10 16 0 5 5 9 10 9 6 0 10 -7 10 -16z m-2175 -4 c3 -5 1 -10 -4 -10 -6 0 -11
5 -11 10 0 6 2 10 4 10 3 0 8 -4 11 -10z m-165 -10 c0 -5 -5 -10 -11 -10 -5 0
-7 5 -4 10 3 6 8 10 11 10 2 0 4 -4 4 -10z m116 -37 c-10 -10 -19 5 -10 18 6
11 8 11 12 0 2 -7 1 -15 -2 -18z m1454 -3 c0 -5 -4 -10 -10 -10 -5 0 -10 5
-10 10 0 6 5 10 10 10 6 0 10 -4 10 -10z m737 -42 c-3 -8 -6 -5 -6 6 -1 11 2
17 5 13 3 -3 4 -12 1 -19z"/>
<path d="M8943 1068 c-7 -9 -6 -22 1 -40 l11 -26 26 22 c20 17 24 27 17 39
-11 20 -41 22 -55 5z"/>
<path d="M3190 1061 c0 -5 8 -17 17 -27 13 -13 14 -19 5 -22 -6 -2 -12 -10
-12 -18 0 -8 -4 -14 -8 -14 -5 0 -9 -7 -9 -15 0 -8 5 -15 11 -15 6 0 4 -5 -4
-10 -8 -5 -16 -22 -17 -37 -6 -81 -3 -78 -100 -103 -24 -6 -43 -16 -43 -21 0
-7 10 -9 25 -5 14 4 25 2 25 -3 0 -6 23 -8 60 -4 104 10 61 -33 -61 -61 -41
-10 -82 -22 -90 -27 -11 -8 -10 -9 6 -5 127 32 213 30 222 -5 3 -11 14 -19 27
-19 40 0 49 14 44 71 -3 30 -3 44 -1 32 9 -47 23 -21 23 42 0 85 -16 160 -46
212 -28 48 -74 81 -74 54z"/>
<path d="M5311 1061 c-10 -6 -10 -10 -1 -16 13 -8 24 -1 19 14 -3 6 -10 7 -18
2z"/>
<path d="M5345 1061 c-6 -11 9 -23 19 -14 9 9 7 23 -3 23 -6 0 -12 -4 -16 -9z"/>
<path d="M4561 1044 c0 -11 3 -14 6 -6 3 7 2 16 -1 19 -3 4 -6 -2 -5 -13z"/>
<path d="M5275 1050 c-3 -5 -1 -10 4 -10 6 0 11 5 11 10 0 6 -2 10 -4 10 -3 0
-8 -4 -11 -10z"/>
<path d="M5195 1040 c-3 -5 -1 -10 4 -10 6 0 11 5 11 10 0 6 -2 10 -4 10 -3 0
-8 -4 -11 -10z"/>
<path d="M5228 1043 c7 -3 16 -2 19 1 4 3 -2 6 -13 5 -11 0 -14 -3 -6 -6z"/>
<path d="M8800 1040 c-12 -8 -12 -13 1 -41 l16 -33 17 27 c28 42 6 73 -34 47z"/>
<path d="M11240 1041 c0 -5 7 -11 14 -14 10 -4 13 -1 9 9 -6 15 -23 19 -23 5z"/>
<path d="M5155 1030 c-3 -5 -1 -10 4 -10 6 0 11 5 11 10 0 6 -2 10 -4 10 -3 0
-8 -4 -11 -10z"/>
<path d="M5360 962 l5 -67 3 59 c2 32 -1 63 -5 67 -4 4 -6 -22 -3 -59z"/>
<path d="M5237 1014 c-8 -14 3 -234 13 -234 4 0 5 48 3 108 -5 131 -6 140 -16
126z"/>
<path d="M5317 923 c3 -54 9 -107 14 -118 5 -11 6 27 2 90 -3 61 -9 114 -13
118 -4 5 -5 -36 -3 -90z"/>
<path d="M8682 1007 c-8 -9 -6 -20 7 -41 l18 -27 7 23 c10 37 7 58 -8 58 -7 0
-18 -6 -24 -13z"/>
<path d="M5191 948 c-1 -31 4 -60 9 -63 12 -8 12 71 0 100 -6 14 -9 4 -9 -37z"/>
<path d="M4910 981 c0 -10 14 -15 34 -12 4 1 5 -10 2 -24 -8 -31 11 -34 23 -2
11 26 5 33 -31 42 -18 5 -28 3 -28 -4z"/>
<path d="M8587 962 c-18 -20 -23 -52 -8 -52 16 0 41 31 41 51 0 24 -12 24 -33
1z"/>
<path d="M4806 954 c-7 -18 0 -34 15 -34 12 0 12 37 0 44 -5 3 -12 -1 -15 -10z"/>
<path d="M4373 945 c-38 -16 -37 -14 -18 -51 8 -16 12 -36 9 -46 -2 -9 0 -20
7 -24 9 -5 10 8 7 50 -3 31 -1 56 4 56 4 0 8 -9 8 -19 0 -11 5 -23 11 -27 8
-4 9 3 4 24 -5 23 -2 33 12 41 28 16 -5 13 -44 -4z"/>
<path d="M4745 950 c-4 -7 -1 -16 6 -21 17 -10 26 8 11 23 -6 6 -12 6 -17 -2z"/>
<path d="M4860 940 c0 -11 5 -20 10 -20 6 0 10 9 10 20 0 11 -4 20 -10 20 -5
0 -10 -9 -10 -20z"/>
<path d="M4607 944 c-12 -12 -8 -24 8 -24 8 0 15 -9 15 -21 0 -11 4 -18 9 -15
11 7 -1 58 -15 63 -6 2 -13 0 -17 -3z"/>
<path d="M4670 941 c0 -6 5 -11 10 -11 6 0 15 -10 20 -22 9 -21 9 -20 7 7 -1
19 -8 31 -19 33 -10 2 -18 -1 -18 -7z"/>
<path d="M4910 930 c0 -11 2 -20 4 -20 2 0 6 9 9 20 3 11 1 20 -4 20 -5 0 -9
-9 -9 -20z"/>
<path d="M4480 921 c0 -11 6 -22 13 -25 10 -5 10 -7 0 -12 -7 -3 -13 -10 -13
-15 0 -6 5 -7 10 -4 6 3 10 0 10 -7 1 -9 4 -7 10 3 6 11 6 28 -1 48 -12 34
-29 41 -29 12z"/>
<path d="M4540 925 c0 -8 4 -15 9 -15 5 0 12 -15 16 -32 6 -26 9 -29 12 -12 5
25 -13 74 -27 74 -5 0 -10 -7 -10 -15z"/>
<path d="M4430 910 c0 -13 5 -20 13 -17 6 2 12 10 12 17 0 7 -6 15 -12 18 -8
2 -13 -5 -13 -18z"/>
<path d="M4760 901 c0 -6 5 -13 10 -16 6 -3 10 1 10 9 0 9 -4 16 -10 16 -5 0
-10 -4 -10 -9z"/>
<path d="M4820 891 c0 -6 5 -13 10 -16 6 -3 10 1 10 9 0 9 -4 16 -10 16 -5 0
-10 -4 -10 -9z"/>
<path d="M4866 885 c4 -8 8 -15 10 -15 2 0 4 7 4 15 0 8 -4 15 -10 15 -5 0 -7
-7 -4 -15z"/>
<path d="M4901 888 c0 -7 4 -22 9 -33 8 -18 9 -17 9 7 1 15 -3 30 -9 33 -5 3
-10 0 -9 -7z"/>
<path d="M8565 890 c27 -12 43 -12 25 0 -8 5 -22 9 -30 9 -10 0 -8 -3 5 -9z"/>
<path d="M4940 855 c0 -19 2 -35 4 -35 2 0 6 16 8 35 2 19 0 35 -4 35 -4 0 -8
-16 -8 -35z"/>
<path d="M5082 870 c0 -14 2 -19 5 -12 2 6 2 18 0 25 -3 6 -5 1 -5 -13z"/>
<path d="M5361 868 c1 -13 5 -34 9 -48 7 -21 8 -19 9 17 1 23 -3 45 -9 48 -6
3 -10 -4 -9 -17z"/>
<path d="M4443 873 c-15 -6 -17 -45 -4 -58 5 -6 11 -28 13 -50 3 -27 5 -14 8
38 3 42 3 77 0 76 -3 0 -11 -3 -17 -6z"/>
<path d="M4405 858 c-4 -10 -4 -26 0 -35 8 -17 8 -17 12 0 3 9 3 25 0 35 -4
16 -4 16 -12 0z"/>
<path d="M5200 827 c0 -26 4 -47 9 -47 8 0 4 80 -5 89 -2 2 -4 -17 -4 -42z"/>
<path d="M1736 835 c-19 -14 -18 -15 13 -15 21 0 31 4 29 12 -6 18 -21 19 -42
3z"/>
<path d="M11360 840 c-8 -5 -10 -10 -5 -10 6 0 17 5 25 10 8 5 11 10 5 10 -5
0 -17 -5 -25 -10z"/>
<path d="M1800 814 c-19 -14 -60 -32 -90 -41 l-56 -17 -19 -69 c-20 -68 -21
-70 -67 -87 -27 -10 -48 -15 -48 -11 0 3 12 24 26 46 21 32 12 25 -46 -33 -40
-40 -87 -83 -104 -95 l-31 -22 31 40 c38 50 90 140 75 131 -6 -4 -29 -34 -51
-66 -22 -32 -49 -65 -60 -73 -17 -12 -19 -18 -9 -45 13 -38 18 -39 54 -9 16
12 74 45 129 72 111 55 125 72 126 145 l1 45 68 33 c38 18 79 44 91 58 29 30
25 29 -20 -2z"/>
<path d="M3903 828 c-23 -6 -31 -13 -26 -24 3 -8 12 -13 20 -10 8 3 21 6 28 6
14 0 28 27 17 33 -4 2 -21 0 -39 -5z"/>
<path d="M5083 795 c1 -23 -3 -46 -7 -53 -8 -13 0 -32 15 -32 5 0 9 7 9 15 0
8 6 12 14 9 8 -3 17 0 22 7 5 9 2 10 -9 6 -21 -8 -35 10 -40 53 -4 33 -4 32
-4 -5z"/>
<path d="M9550 826 c0 -9 5 -16 10 -16 6 0 10 4 10 9 0 6 -4 13 -10 16 -5 3
-10 -1 -10 -9z"/>
<path d="M1080 821 c0 -6 -7 -11 -16 -11 -11 0 -14 -6 -9 -20 4 -11 2 -20 -4
-20 -6 0 -11 7 -11 15 0 23 -28 18 -44 -7 -11 -19 -12 -35 -2 -92 11 -66 26
-90 41 -67 3 6 19 11 35 11 16 0 32 5 35 10 4 6 10 8 14 6 18 -11 32 11 22 35
-5 13 -17 50 -26 81 -14 51 -35 86 -35 59z m-70 -67 c0 -8 -5 -12 -10 -9 -6 4
-8 11 -5 16 9 14 15 11 15 -7z m80 -46 c0 -6 -3 -8 -7 -5 -3 4 -12 2 -19 -4
-15 -12 -44 -5 -44 11 0 5 16 10 35 10 20 0 35 -5 35 -12z"/>
<path d="M4512 800 c0 -19 2 -27 5 -17 2 9 2 25 0 35 -3 9 -5 1 -5 -18z"/>
<path d="M8865 820 c-229 -18 -399 -61 -464 -117 -42 -36 -69 -99 -51 -117 7
-7 10 -6 10 2 0 7 7 12 15 12 9 0 18 6 21 14 3 8 16 17 30 20 27 7 33 36 8 36
-14 0 -15 2 -3 17 58 69 419 132 684 118 154 -7 453 -40 510 -56 22 -6 45 -17
52 -26 15 -19 6 -44 -13 -36 -8 3 -14 0 -14 -6 0 -6 5 -11 10 -11 6 0 10 -6
10 -14 0 -26 15 -25 17 1 0 14 7 30 15 34 10 7 10 11 1 17 -6 4 -11 16 -10 26
2 22 -19 30 -123 47 -222 36 -530 53 -705 39z m-461 -164 c-3 -8 -13 -17 -22
-21 -13 -5 -13 -2 3 15 21 24 26 25 19 6z"/>
<path d="M9615 820 c-8 -13 4 -32 16 -25 12 8 12 35 0 35 -6 0 -13 -4 -16 -10z"/>
<path d="M11553 812 c11 -12 17 -36 17 -68 0 -35 3 -45 10 -34 5 8 7 25 5 37
-3 13 -7 34 -10 47 -3 13 -12 27 -22 30 -16 6 -16 6 0 -12z"/>
<path d="M7630 795 c7 -8 16 -15 20 -15 4 0 10 7 14 15 4 11 -2 15 -21 15 -21
0 -24 -2 -13 -15z"/>
<path d="M7700 796 c0 -18 14 -22 70 -21 49 0 71 16 30 21 -14 2 -42 6 -62 9
-29 4 -38 2 -38 -9z"/>
<path d="M5470 790 c0 -5 9 -10 21 -10 11 0 17 5 14 10 -3 6 -13 10 -21 10 -8
0 -14 -4 -14 -10z"/>
<path d="M7300 792 c0 -5 7 -15 15 -22 8 -7 15 -19 15 -26 0 -8 5 -14 11 -14
6 0 9 7 5 15 -8 21 21 19 33 -2 10 -17 10 -17 11 -1 0 21 30 13 30 -9 0 -8 5
-11 10 -8 6 4 8 11 5 16 -4 5 1 9 9 9 9 0 16 -7 16 -15 0 -8 5 -15 10 -15 6 0
10 7 10 15 0 20 16 19 24 -1 4 -11 -1 -22 -13 -31 -12 -7 -18 -20 -15 -28 4
-9 0 -15 -10 -15 -9 0 -16 -6 -16 -13 0 -9 18 -13 64 -13 58 1 63 -1 55 -16
-6 -11 -6 -18 0 -18 5 0 11 5 13 12 5 13 60 13 158 0 36 -5 84 -9 107 -8 22 0
39 -2 37 -5 -2 -4 8 -6 21 -6 15 0 25 5 25 13 0 8 -4 14 -9 14 -12 0 -21 49
-10 56 4 2 6 11 2 19 -3 8 0 15 7 15 6 0 14 -9 17 -20 7 -27 21 -25 25 3 3 21
4 20 20 -8 16 -27 17 -28 18 -7 0 27 20 29 27 2 6 -23 23 -27 23 -5 0 20 10
19 25 -2 11 -14 13 -13 17 14 l4 31 -95 12 c-145 18 -155 19 -316 35 -82 8
-188 17 -235 20 -47 3 -100 8 -117 11 -18 3 -33 1 -33 -4z m247 -62 c3 -11 9
-17 14 -14 5 3 7 10 4 15 -4 5 0 9 8 9 8 0 18 -10 22 -22 l8 -23 4 23 c5 25
26 25 31 0 4 -20 -24 -26 -75 -16 -33 7 -43 14 -43 29 0 25 20 25 27 -1z m133
-17 c0 -8 5 -11 10 -8 6 4 8 11 5 16 -4 5 0 9 8 9 15 0 32 -29 23 -38 -3 -2
-21 -1 -41 2 -26 5 -35 12 -35 26 0 13 5 18 15 14 8 -4 15 -13 15 -21z m88 -6
c2 -10 -3 -17 -12 -17 -10 0 -16 9 -16 21 0 24 23 21 28 -4z m42 -3 c0 -8 5
-14 10 -14 6 0 10 7 10 15 0 22 15 18 28 -7 l11 -23 0 22 c1 28 31 20 31 -8 0
-16 -6 -18 -42 -15 -24 3 -53 5 -64 5 -17 1 -20 6 -17 25 5 26 33 26 33 0z
m-293 -46 c-3 -8 -6 -5 -6 6 -1 11 2 17 5 13 3 -3 4 -12 1 -19z m53 8 c0 -3
-4 -8 -10 -11 -5 -3 -10 -1 -10 4 0 6 5 11 10 11 6 0 10 -2 10 -4z m77 -18
c-3 -8 -6 -5 -6 6 -1 11 2 17 5 13 3 -3 4 -12 1 -19z m53 2 c0 -5 -4 -10 -10
-10 -5 0 -10 5 -10 10 0 6 5 10 10 10 6 0 10 -4 10 -10z m37 -12 c-3 -8 -6 -5
-6 6 -1 11 2 17 5 13 3 -3 4 -12 1 -19z m53 2 c0 -5 -4 -10 -10 -10 -5 0 -10
5 -10 10 0 6 5 10 10 10 6 0 10 -4 10 -10z"/>
<path d="M5310 771 c-23 -6 -27 -16 -20 -53 1 -7 5 -2 9 12 5 18 14 24 29 23
14 -2 22 3 22 12 0 16 -2 17 -40 6z"/>
<path d="M3458 745 c-9 -20 -9 -28 0 -34 6 -4 -19 -15 -56 -24 -77 -20 -97
-30 -88 -45 4 -8 16 -8 37 0 36 13 43 7 45 -38 1 -42 5 -47 37 -39 23 6 24 9
15 47 -8 37 -1 69 9 41 3 -7 12 -13 21 -13 12 0 13 -3 4 -12 -16 -16 -15 -29
2 -22 8 3 17 -2 20 -13 3 -10 4 6 2 35 -2 38 1 55 10 59 21 8 17 23 -6 23 -15
0 -20 7 -20 24 0 36 -18 41 -32 11z"/>
<path d="M5221 758 c-26 -7 -31 -12 -20 -18 8 -6 15 -6 17 0 7 19 22 10 22
-12 0 -13 5 -30 10 -38 7 -11 10 -7 10 17 0 17 3 38 6 47 7 18 3 18 -45 4z"/>
<path d="M3913 748 c-37 -12 -45 -31 -10 -23 29 7 44 -4 50 -35 2 -15 5 -5 6
23 0 26 -2 47 -6 46 -5 -1 -23 -6 -40 -11z"/>
<path d="M8843 753 c-80 -6 -65 -25 16 -21 50 2 67 6 64 16 -3 6 -10 11 -17
10 -6 -1 -35 -3 -63 -5z"/>
<path d="M8960 750 c0 -6 37 -10 85 -10 56 0 85 -4 85 -11 0 -7 10 -9 26 -5
44 11 193 -5 196 -21 2 -9 7 -7 16 8 8 11 9 18 3 14 -6 -3 -11 -2 -11 3 0 13
-94 23 -257 28 -88 2 -143 0 -143 -6z"/>
<path d="M4250 741 c-8 -5 -34 -12 -57 -16 -24 -4 -46 -11 -49 -17 -4 -6 7 -7
30 -3 25 5 43 3 60 -8 20 -14 25 -29 36 -114 6 -54 16 -105 21 -115 7 -13 0
-18 -44 -28 -76 -18 -85 -27 -28 -26 33 1 56 -4 66 -14 8 -9 21 -56 30 -110
13 -89 14 -90 8 -20 -4 41 -7 100 -7 130 0 30 -4 57 -8 60 -12 9 -33 158 -33
228 1 64 0 67 -25 53z"/>
<path d="M5161 713 c11 -50 19 -52 19 -6 0 27 -4 40 -14 40 -10 0 -11 -9 -5
-34z"/>
<path d="M11225 690 c-66 -33 -135 -62 -153 -66 -23 -4 -36 -14 -43 -31 -14
-38 -11 -71 8 -82 15 -8 22 -2 43 33 46 78 68 97 170 147 55 27 100 51 100 54
0 8 3 9 -125 -55z"/>
<path d="M4880 728 c0 -7 -3 -23 -6 -35 -5 -17 -2 -23 9 -23 18 0 27 21 20 49
-6 23 -23 29 -23 9z"/>
<path d="M4943 728 c34 -15 36 -31 2 -22 -22 5 -25 3 -25 -20 0 -14 5 -26 10
-26 6 0 10 5 10 10 0 6 6 10 13 9 25 -3 38 1 32 11 -4 6 -1 17 5 25 7 8 11 15
9 15 -2 1 -22 3 -44 5 -38 4 -39 3 -12 -7z"/>
<path d="M5343 705 c0 -22 2 -30 4 -17 2 12 2 30 0 40 -3 9 -5 -1 -4 -23z"/>
<path d="M8670 730 c-30 -10 -19 -13 35 -10 55 3 83 20 30 19 -22 -1 -51 -5
-65 -9z"/>
<path d="M9400 720 c0 -9 12 -12 130 -30 36 -5 66 -14 68 -20 4 -12 22 -14 22
-2 -1 23 -26 35 -106 47 -105 18 -114 18 -114 5z"/>
<path d="M4465 706 c-18 -13 -18 -14 8 -9 15 3 27 9 27 14 0 13 -13 11 -35 -5z"/>
<path d="M7305 712 c-3 -3 -5 -14 -5 -24 0 -11 -4 -16 -10 -13 -5 3 -10 0 -10
-8 0 -8 7 -18 16 -21 19 -7 44 10 40 27 -1 7 -1 9 1 5 3 -5 14 -8 24 -8 11 0
17 5 14 10 -3 6 -1 10 4 10 14 0 14 -17 0 -26 -14 -8 8 -24 34 -24 13 0 16 6
14 23 -2 12 -2 16 0 9 4 -10 8 -10 19 -1 20 16 18 43 -2 35 -9 -4 -22 -2 -29
4 -9 8 -15 8 -20 0 -3 -6 -12 -7 -18 -3 -15 9 -64 13 -72 5z"/>
<path d="M8569 716 c-2 -3 -16 -7 -29 -9 -43 -9 -80 -26 -80 -38 0 -6 8 -9 18
-6 9 4 45 14 79 24 72 21 89 33 46 33 -16 0 -32 -2 -34 -4z"/>
<path d="M4394 701 c-51 -13 -54 -18 -34 -59 10 -20 14 -38 9 -40 -15 -6 -10
-29 7 -29 12 0 14 8 8 41 -6 37 -5 39 10 27 10 -9 14 -22 10 -37 -4 -15 -2
-24 5 -24 7 0 11 20 11 51 0 37 -3 48 -12 44 -7 -4 -2 3 12 14 27 22 23 23
-26 12z"/>
<path d="M4684 689 c-3 -6 -1 -15 6 -19 7 -5 18 -21 25 -37 11 -27 12 -27 17
-5 3 12 3 22 -2 22 -4 0 -11 11 -14 25 -7 26 -20 32 -32 14z"/>
<path d="M4750 691 c0 -5 6 -14 14 -20 16 -13 32 2 21 19 -8 12 -35 13 -35 1z"/>
<path d="M4815 690 c-3 -6 1 -13 10 -16 19 -8 30 0 20 15 -8 14 -22 14 -30 1z"/>
<path d="M8699 688 c-13 -11 -12 -18 7 -57 l21 -44 7 36 c4 21 2 45 -4 57 -13
24 -12 23 -31 8z"/>
<path d="M8834 686 c-3 -8 1 -27 9 -42 13 -25 12 -35 -4 -93 -23 -80 -23 -83
-3 -79 29 6 72 174 54 208 -12 23 -48 27 -56 6z"/>
<path d="M9005 690 c-4 -6 -1 -26 5 -45 13 -40 7 -56 -18 -49 -16 5 -16 5 -1
-8 15 -12 15 -21 7 -66 -6 -29 -9 -54 -7 -57 2 -2 17 -5 34 -7 27 -3 30 0 36
37 4 22 12 53 18 68 15 38 14 110 -1 125 -15 15 -64 16 -73 2z"/>
<path d="M4488 672 c-6 -23 -1 -32 19 -32 17 0 17 11 0 35 -13 17 -14 17 -19
-3z"/>
<path d="M4617 683 c-12 -11 -8 -23 8 -23 8 0 15 -9 15 -19 0 -11 5 -23 11
-27 8 -4 9 4 4 27 -11 49 -21 60 -38 42z"/>
<path d="M5068 664 c-9 -19 -9 -85 -1 -270 10 -222 15 -266 27 -253 8 9 13
149 4 149 -13 0 -9 68 5 73 10 4 10 6 0 6 -8 1 -13 16 -13 44 0 31 3 38 10 27
8 -12 10 -11 10 8 0 12 -6 22 -14 22 -11 0 -15 19 -18 80 -2 44 0 94 3 110 8
37 2 39 -13 4z"/>
<path d="M9200 671 c-7 -13 -7 -22 0 -26 12 -7 14 -55 2 -55 -4 0 -13 5 -20
12 -6 6 -14 9 -18 6 -3 -4 4 -15 15 -25 24 -20 26 -39 9 -94 -13 -46 -12 -48
35 -56 31 -5 36 -3 40 18 4 21 4 20 6 -5 0 -16 3 -27 6 -24 9 9 45 167 45 197
0 58 -95 99 -120 52z"/>
<path d="M9735 680 c19 -8 73 -14 64 -6 -2 2 -22 6 -44 9 -28 5 -34 4 -20 -3z"/>
<path d="M9990 671 c-13 -26 -13 -31 4 -31 7 0 16 11 18 25 6 30 -7 33 -22 6z"/>
<path d="M4436 671 c-8 -12 3 -41 15 -41 12 0 12 37 0 45 -5 3 -12 1 -15 -4z"/>
<path d="M4545 671 c-3 -6 1 -13 8 -18 8 -4 19 -26 25 -48 8 -32 10 -35 11
-14 3 65 -23 112 -44 80z"/>
<path d="M8581 671 c-10 -7 -10 -12 0 -30 18 -28 29 -27 29 3 0 29 -10 38 -29
27z"/>
<path d="M2948 663 c7 -3 16 -2 19 1 4 3 -2 6 -13 5 -11 0 -14 -3 -6 -6z"/>
<path d="M3603 630 c-10 -22 -24 -40 -30 -40 -7 0 -13 -1 -13 -3 0 -1 11 -65
24 -142 14 -77 28 -166 31 -198 4 -31 15 -67 25 -80 18 -23 33 -90 18 -81 -4
3 -8 15 -8 27 0 12 -5 29 -10 37 -8 11 -9 9 -5 -10 3 -14 7 -43 9 -65 l3 -40
49 3 c27 2 50 5 52 7 2 1 -2 34 -9 71 -8 50 -18 75 -35 91 -30 28 -30 35 0 27
20 -5 24 -1 29 22 3 18 0 32 -9 39 -11 9 -34 113 -34 155 1 32 18 -15 25 -68
4 -29 9 -51 12 -48 3 3 0 45 -6 93 -6 48 -14 107 -17 131 -3 26 -10 42 -19 42
-7 0 -16 8 -20 18 -7 16 -8 15 -15 -3 -7 -17 -9 -15 -9 12 -1 47 -17 48 -38 3z"/>
<path d="M3962 640 c0 -14 2 -19 5 -12 2 6 2 18 0 25 -3 6 -5 1 -5 -13z"/>
<path d="M7935 635 c4 -30 4 -31 16 -15 8 12 9 9 4 -9 -6 -20 -4 -23 9 -18 10
4 15 3 11 -3 -3 -6 5 -10 18 -10 15 0 28 9 37 25 7 14 17 25 22 25 12 0 10 -7
-8 -25 -20 -20 -17 -23 29 -29 28 -4 35 -2 30 9 -3 8 -10 12 -16 8 -6 -4 -8 2
-5 15 6 21 -11 44 -28 41 -5 -1 -11 0 -14 1 -3 1 -28 3 -56 4 -46 2 -51 0 -49
-19z m75 -15 c0 -5 -5 -10 -11 -10 -5 0 -7 5 -4 10 3 6 8 10 11 10 2 0 4 -4 4
-10z"/>
<path d="M8493 648 c-17 -20 -20 -50 -6 -55 17 -6 40 44 26 58 -7 7 -13 6 -20
-3z"/>
<path d="M9450 647 c-18 -10 -25 -21 -25 -44 0 -22 -4 -29 -14 -25 -11 4 -12
1 -6 -14 12 -26 7 -124 -7 -142 -10 -11 -8 -13 8 -10 12 1 27 -2 35 -9 8 -7
33 -15 55 -19 l40 -6 12 69 c27 150 27 150 -6 183 -33 33 -54 37 -92 17z"/>
<path d="M10130 646 c0 -16 46 -34 74 -28 14 3 8 9 -24 23 -50 23 -50 23 -50
5z"/>
<path d="M4776 635 c4 -8 8 -15 10 -15 2 0 4 7 4 15 0 8 -4 15 -10 15 -5 0 -7
-7 -4 -15z"/>
<path d="M4831 643 c0 -5 4 -17 9 -28 8 -18 9 -17 9 8 1 15 -3 27 -9 27 -5 0
-10 -3 -9 -7z"/>
<path d="M4876 635 c4 -8 10 -15 15 -15 5 0 9 7 9 15 0 8 -7 15 -15 15 -9 0
-12 -6 -9 -15z"/>
<path d="M4920 626 c0 -14 5 -26 10 -26 6 0 10 9 10 19 0 11 -4 23 -10 26 -6
4 -10 -5 -10 -19z"/>
<path d="M5088 638 c-3 -7 -2 -22 2 -32 6 -19 7 -19 12 1 7 25 -6 53 -14 31z"/>
<path d="M4958 593 c5 -83 9 -90 11 -20 0 37 -2 67 -7 67 -4 0 -6 -21 -4 -47z"/>
<path d="M5153 633 c-44 -6 -42 -19 2 -20 24 -1 35 3 35 13 0 8 -1 13 -2 12
-2 0 -18 -3 -35 -5z"/>
<path d="M5214 634 c-13 -6 -7 -44 7 -44 5 0 9 10 9 23 1 20 2 20 14 5 7 -10
13 -53 15 -110 1 -51 7 -97 13 -103 7 -7 8 10 4 55 -3 36 -5 90 -5 120 -1 50
-3 56 -23 57 -13 1 -28 -1 -34 -3z"/>
<path d="M7255 630 c-3 -5 -1 -10 4 -10 6 0 11 5 11 10 0 6 -2 10 -4 10 -3 0
-8 -4 -11 -10z"/>
<path d="M7282 628 c5 -13 38 -20 38 -8 0 4 -9 10 -21 13 -12 3 -19 1 -17 -5z"/>
<path d="M9715 630 c-3 -4 9 -10 26 -14 28 -5 30 -8 18 -23 -12 -14 -10 -14
14 2 15 10 26 20 23 22 -9 10 -76 21 -81 13z"/>
<path d="M3342 593 c2 -27 8 -39 21 -41 20 -4 23 27 7 59 -17 31 -31 22 -28
-18z"/>
<path d="M4490 620 c-9 -6 -10 -10 -3 -10 6 0 16 -12 21 -27 9 -28 9 -28 13
10 5 38 -3 45 -31 27z"/>
<path d="M7330 620 c0 -5 18 -8 40 -8 23 0 38 3 35 6 -10 10 -75 12 -75 2z"/>
<path d="M8420 615 c-10 -12 -10 -15 4 -15 9 0 16 7 16 15 0 8 -2 15 -4 15 -2
0 -9 -7 -16 -15z"/>
<path d="M9820 623 c0 -20 49 -48 62 -35 8 8 3 13 -18 18 -16 4 -32 12 -36 18
-5 8 -8 7 -8 -1z"/>
<path d="M4444 574 c3 -26 6 -62 6 -80 0 -19 5 -34 10 -34 6 0 9 32 8 80 -1
63 -4 80 -16 80 -12 0 -13 -9 -8 -46z"/>
<path d="M7442 612 c-18 -3 -23 -8 -19 -23 3 -10 1 -17 -3 -14 -5 3 -14 -4
-20 -15 -10 -19 -9 -19 16 -8 22 10 28 10 32 0 2 -6 8 -12 14 -12 7 0 6 5 -1
14 -14 17 -5 24 43 31 22 4 36 2 36 -4 0 -6 4 -11 9 -11 4 0 6 11 4 23 -4 21
-10 24 -46 23 -23 0 -53 -2 -65 -4z"/>
<path d="M8648 603 c7 -3 16 -2 19 1 4 3 -2 6 -13 5 -11 0 -14 -3 -6 -6z"/>
<path d="M11459 596 c6 -8 16 -49 21 -92 5 -44 13 -90 16 -103 5 -16 2 -28 -8
-35 -8 -6 -17 -20 -21 -31 -5 -13 0 -10 17 10 23 28 24 36 19 115 -6 101 -19
150 -40 150 -12 0 -13 -3 -4 -14z"/>
<path d="M1335 580 c-10 -11 -13 -20 -7 -20 6 0 16 9 22 20 6 11 9 20 7 20 -2
0 -12 -9 -22 -20z"/>
<path d="M1849 588 c-1 -7 -1 -18 0 -24 1 -7 -12 -17 -29 -22 -33 -12 -37 -23
-15 -42 9 -7 15 -8 15 -2 0 5 6 10 13 9 42 -1 55 4 59 28 3 14 2 25 -3 25 -4
0 -11 9 -14 20 -7 22 -24 27 -26 8z"/>
<path d="M2730 577 c0 -13 -6 -29 -12 -35 -10 -10 -10 -15 1 -22 11 -6 -1 -13
-42 -25 -31 -9 -71 -24 -89 -33 l-33 -17 33 -3 c25 -3 32 -7 28 -18 -8 -20 3
-64 15 -64 14 0 24 31 13 39 -11 7 -12 51 -1 51 4 0 11 0 17 0 5 0 9 -8 8 -17
-1 -10 0 -28 0 -40 2 -19 5 -20 27 -10 31 15 33 37 3 37 -21 1 -22 2 -5 14 9
7 17 18 17 25 0 28 19 7 25 -29 5 -28 12 -40 23 -40 37 0 42 13 30 73 -7 31
-16 57 -20 57 -4 0 -5 6 -2 13 6 18 -13 67 -26 67 -5 0 -10 -10 -10 -23z"/>
<path d="M4720 588 c0 -11 -6 -14 -20 -11 -14 4 -20 0 -20 -11 0 -9 5 -16 10
-16 6 0 10 -13 10 -30 0 -50 17 -34 23 22 4 28 4 54 2 57 -3 2 -5 -3 -5 -11z"/>
<path d="M10271 573 c0 -16 3 -23 5 -16 4 8 17 10 37 6 37 -7 35 -2 -10 21
l-33 17 1 -28z"/>
<path d="M3971 572 c-1 -13 4 -32 9 -42 9 -17 5 -21 -32 -32 l-43 -12 35 -4
c19 -2 41 -9 49 -15 11 -10 13 -6 8 23 -3 19 -10 51 -15 70 -8 27 -10 29 -11
12z"/>
<path d="M7570 580 c0 -5 5 -10 10 -10 6 0 10 5 10 10 0 6 -4 10 -10 10 -5 0
-10 -4 -10 -10z"/>
<path d="M7600 579 c0 -5 5 -7 10 -4 6 3 10 8 10 11 0 2 -4 4 -10 4 -5 0 -10
-5 -10 -11z"/>
<path d="M7690 580 c0 -5 5 -10 10 -10 6 0 10 5 10 10 0 6 -4 10 -10 10 -5 0
-10 -4 -10 -10z"/>
<path d="M7720 580 c0 -5 5 -10 10 -10 6 0 10 5 10 10 0 6 -4 10 -10 10 -5 0
-10 -4 -10 -10z"/>
<path d="M7820 579 c0 -7 41 -29 78 -41 4 -1 16 -10 26 -20 22 -20 32 -22 41
-8 3 6 0 13 -9 16 -8 3 -12 12 -9 20 3 8 -1 14 -11 14 -9 0 -16 5 -16 11 0 5
-8 9 -17 8 -10 -1 -20 0 -23 1 -20 7 -60 7 -60 -1z"/>
<path d="M10222 577 c9 -7 18 -29 20 -48 l4 -34 8 39 c9 40 -1 56 -34 56 -12
-1 -12 -3 2 -13z"/>
<path d="M5217 493 c6 -85 9 -101 17 -92 8 8 -7 179 -15 179 -4 0 -5 -39 -2
-87z"/>
<path d="M7755 569 c4 -6 10 -8 13 -5 3 3 11 1 19 -5 8 -7 13 -8 13 -1 0 5 -7
13 -16 16 -24 9 -36 7 -29 -5z"/>
<path d="M8466 573 c-11 -11 -6 -23 8 -23 8 0 17 4 20 9 7 10 -19 23 -28 14z"/>
<path d="M8701 534 c-7 -26 -10 -49 -7 -51 3 -3 10 15 16 38 7 24 14 47 17 52
2 4 0 7 -5 7 -5 0 -15 -21 -21 -46z"/>
<path d="M9974 561 c13 -14 22 -18 27 -10 5 8 8 8 13 0 9 -13 26 -15 26 -2 0
5 -11 12 -24 15 -13 3 -32 9 -43 13 -17 6 -17 5 1 -16z"/>
<path d="M7480 560 c0 -5 5 -10 10 -10 6 0 10 5 10 10 0 6 -4 10 -10 10 -5 0
-10 -4 -10 -10z"/>
<path d="M7966 562 c-3 -5 1 -9 9 -9 8 0 12 4 9 9 -3 4 -7 8 -9 8 -2 0 -6 -4
-9 -8z"/>
<path d="M8401 554 c0 -11 3 -14 6 -6 3 7 2 16 -1 19 -3 4 -6 -2 -5 -13z"/>
<path d="M7810 550 c0 -5 5 -10 10 -10 6 0 10 5 10 10 0 6 -4 10 -10 10 -5 0
-10 -4 -10 -10z"/>
<path d="M1147 522 c-19 -20 -23 -37 -7 -27 10 6 33 45 27 45 -2 0 -11 -8 -20
-18z"/>
<path d="M7395 520 c-16 -11 -26 -20 -22 -20 11 0 67 29 67 35 0 10 -16 4 -45
-15z"/>
<path d="M10395 530 c9 -15 45 -32 45 -22 0 5 -12 14 -26 20 -14 7 -23 8 -19
2z"/>
<path d="M7870 521 c0 -5 10 -13 23 -17 12 -4 25 -12 29 -18 4 -6 10 -7 14 -3
9 9 -27 37 -38 31 -5 -3 -8 0 -8 5 0 6 -4 11 -10 11 -5 0 -10 -4 -10 -9z"/>
<path d="M8460 515 c0 -8 2 -15 4 -15 2 0 6 7 10 15 3 8 1 15 -4 15 -6 0 -10
-7 -10 -15z"/>
<path d="M11098 441 c-35 -49 -69 -97 -75 -107 -11 -16 -3 7 24 74 5 12 2 12
-16 1 -11 -8 -21 -21 -21 -29 0 -9 -4 -20 -10 -26 -5 -5 -14 -49 -19 -99 -11
-92 -8 -126 5 -59 10 55 39 120 78 174 45 63 107 160 101 160 -2 0 -32 -40
-67 -89z"/>
<path d="M10262 500 c0 -14 2 -19 5 -12 2 6 2 18 0 25 -3 6 -5 1 -5 -13z"/>
<path d="M11770 500 c-12 -23 -5 -26 16 -6 8 9 10 17 5 21 -6 3 -15 -4 -21
-15z"/>
<path d="M1170 496 c-179 -68 -167 -66 -280 -56 -58 4 -107 7 -109 5 -1 -2 22
-18 53 -36 32 -17 55 -34 52 -36 -4 -5 -86 7 -166 23 -17 4 -22 2 -15 -5 13
-13 161 -40 184 -34 11 3 22 0 25 -6 12 -18 -38 -23 -171 -17 -83 3 -123 2
-113 -4 8 -5 24 -10 35 -10 25 -1 77 -29 54 -30 -9 0 -22 -7 -29 -15 -17 -20
-18 -20 -86 21 -64 40 -87 44 -114 19 -10 -9 -51 -28 -92 -41 -71 -24 -72 -25
-23 -19 28 4 70 15 94 26 49 21 77 24 86 8 16 -25 90 -69 117 -69 16 0 49 11
73 25 36 21 56 26 121 26 43 0 82 3 86 5 3 2 0 25 -9 49 -17 51 -12 78 14 73
10 -1 23 1 30 5 6 4 19 0 27 -9 13 -13 16 -13 16 -1 0 8 17 21 38 30 47 21
160 87 147 86 -5 0 -26 -6 -45 -13z"/>
<path d="M9698 464 c3 -24 11 -38 22 -41 20 -5 40 -43 40 -74 0 -12 5 -19 13
-17 7 3 13 28 15 67 4 75 -13 101 -63 101 -30 0 -31 -1 -27 -36z"/>
<path d="M1880 480 c-7 -4 -10 -12 -7 -17 4 -5 -11 -18 -31 -28 l-37 -19 45
-6 44 -5 18 -65 c22 -78 49 -171 55 -186 2 -6 -17 -19 -42 -28 -25 -10 -45
-21 -45 -25 0 -5 22 -6 49 -3 l49 4 13 -51 c7 -29 18 -51 26 -51 16 0 16 6 -2
66 -8 27 -12 57 -9 67 3 10 -1 26 -8 35 -19 23 -80 236 -76 265 3 28 -23 59
-42 47z"/>
<path d="M7350 479 c0 -5 5 -7 10 -4 6 3 10 8 10 11 0 2 -4 4 -10 4 -5 0 -10
-5 -10 -11z"/>
<path d="M7954 478 c-4 -6 -2 -14 4 -16 7 -2 12 -11 12 -20 0 -13 3 -13 12 -4
10 10 10 15 -1 21 -7 5 -10 14 -7 20 4 6 3 11 -3 11 -5 0 -13 -5 -17 -12z"/>
<path d="M10450 471 c0 -5 5 -13 11 -16 6 -4 7 -20 4 -38 -6 -24 -4 -29 5 -21
15 14 9 76 -7 82 -7 2 -13 -1 -13 -7z"/>
<path d="M10500 471 c0 -10 30 -24 37 -17 3 2 -5 9 -16 16 -12 6 -21 7 -21 1z"/>
<path d="M5312 450 c0 -14 2 -19 5 -12 2 6 2 18 0 25 -3 6 -5 1 -5 -13z"/>
<path d="M9902 463 c-7 -3 -22 -22 -32 -44 l-20 -39 24 0 c36 0 49 -23 44 -75
-5 -37 -3 -45 11 -46 82 -5 75 -10 84 60 13 110 -36 174 -111 144z"/>
<path d="M11721 443 c7 -20 6 -28 -3 -35 -19 -12 -24 -10 -36 15 -10 19 -10
18 -6 -13 4 -33 4 -34 -7 -10 -11 23 -13 23 -16 5 -2 -11 -28 -44 -58 -74 -45
-45 -57 -52 -69 -42 -16 14 -20 6 -31 -66 l-7 -43 34 6 c39 8 52 21 85 92 17
37 30 52 44 52 11 0 38 17 61 39 40 37 41 39 29 70 -16 38 -35 42 -20 4z"/>
<path d="M3424 419 c-15 -17 -16 -29 -8 -96 9 -82 12 -84 62 -68 15 5 17 85 2
85 -6 0 -8 10 -4 24 13 54 -21 90 -52 55z"/>
<path d="M4387 433 c-30 -3 -37 -8 -33 -21 8 -23 16 -271 9 -252 -9 24 -27 31
-34 13 -14 -42 22 -143 52 -143 10 0 10 234 0 305 -9 65 -6 71 41 81 15 4 25
10 22 15 -3 5 -8 8 -12 7 -4 -1 -24 -3 -45 -5z"/>
<path d="M4002 395 c0 -16 4 -43 8 -60 l8 -30 0 30 c0 17 -4 44 -8 60 l-8 30
0 -30z"/>
<path d="M5670 410 c0 -5 5 -10 11 -10 5 0 7 5 4 10 -3 6 -8 10 -11 10 -2 0
-4 -4 -4 -10z"/>
<path d="M2183 396 c3 -8 -4 -18 -19 -24 -15 -7 -22 -17 -18 -27 5 -11 11 -12
25 -4 10 5 19 6 19 2 0 -4 5 -2 11 4 14 14 4 63 -12 63 -6 0 -9 -6 -6 -14z"/>
<path d="M5317 323 c7 -104 13 -106 13 -5 0 45 -4 82 -9 82 -5 0 -6 -35 -4
-77z"/>
<path d="M4427 379 c7 -7 15 -10 18 -7 3 3 -2 9 -12 12 -14 6 -15 5 -6 -5z"/>
<path d="M5227 363 c-3 -16 -1 -32 4 -37 5 -6 9 4 9 27 0 44 -6 48 -13 10z"/>
<path d="M5268 365 c-3 -14 -2 -28 2 -30 4 -3 5 -36 2 -75 -3 -51 -1 -70 7
-70 9 0 12 27 9 100 -3 97 -11 126 -20 75z"/>
<path d="M2484 350 c8 -46 22 -58 41 -39 14 13 12 18 -16 44 l-32 30 7 -35z"/>
<path d="M5189 358 c-2 -13 -1 -43 2 -68 5 -41 6 -39 7 23 2 67 -2 87 -9 45z"/>
<path d="M10318 373 c0 -5 -2 -19 -3 -33 -1 -14 -4 -31 -6 -39 -2 -8 9 -19 28
-27 29 -12 32 -12 32 4 0 9 3 29 7 45 4 16 1 33 -6 42 -13 16 -49 21 -52 8z"/>
<path d="M3045 338 c-4 -15 -11 -26 -16 -22 -5 3 -6 11 -2 17 3 7 -3 3 -15 -7
-26 -22 -28 -28 -7 -20 22 9 18 -2 -10 -30 -30 -30 -32 -65 -8 -188 l16 -88
78 1 c73 1 76 2 61 18 -10 10 -23 17 -31 17 -8 -1 -18 12 -24 28 -8 25 -6 31
14 47 27 21 23 22 -41 9 -65 -12 -28 12 44 30 l55 13 -2 51 -2 51 -36 0 c-20
0 -43 -6 -52 -13 -12 -10 -16 -9 -20 10 -8 28 1 41 23 35 18 -5 23 22 6 34
-16 12 5 30 26 23 13 -4 18 -2 14 4 -3 6 -20 10 -36 10 -24 -1 -30 -6 -35 -30z
m25 -285 c0 -9 -1 -14 -3 -12 -1 2 -11 15 -22 28 l-20 24 23 -12 c12 -6 22
-19 22 -28z"/>
<path d="M8952 365 c9 -9 85 -24 153 -31 28 -2 75 -9 105 -15 103 -19 225 -41
250 -44 50 -8 217 -44 270 -58 30 -8 71 -17 90 -20 19 -3 43 -8 53 -12 13 -6
16 -3 11 9 -3 8 -22 18 -42 22 -21 3 -71 14 -112 24 -63 15 -165 37 -255 54
-33 6 -207 35 -250 41 -22 3 -47 7 -55 10 -45 12 -227 29 -218 20z"/>
<path d="M3160 345 c-7 -9 -11 -18 -8 -20 3 -3 11 1 18 10 7 9 11 18 8 20 -3
3 -11 -1 -18 -10z"/>
<path d="M9542 340 c0 -14 2 -19 5 -12 2 6 2 18 0 25 -3 6 -5 1 -5 -13z"/>
<path d="M10608 335 c-3 -14 -2 -28 2 -30 11 -7 21 38 11 48 -5 5 -11 -3 -13
-18z"/>
<path d="M400 326 c-24 -11 -27 -31 -2 -21 16 7 42 12 70 14 6 1 12 5 12 11 0
11 -51 9 -80 -4z"/>
<path d="M8450 320 c0 -5 16 -10 35 -10 19 0 35 5 35 10 0 6 -16 10 -35 10
-19 0 -35 -4 -35 -10z"/>
<path d="M8550 321 c0 -5 25 -11 55 -13 54 -3 71 4 39 16 -24 9 -94 7 -94 -3z"/>
<path d="M2203 314 c4 -4 -7 -16 -25 -27 -28 -15 -29 -17 -8 -13 14 3 30 2 37
-2 9 -6 66 -203 60 -208 -1 -1 -15 -9 -32 -18 -18 -10 -22 -15 -9 -11 27 7 54
-3 54 -21 0 -8 4 -14 9 -14 4 0 8 18 8 40 0 22 -3 40 -7 40 -10 0 -62 195 -58
217 2 11 -5 19 -17 21 -11 2 -16 1 -12 -4z"/>
<path d="M2471 304 c0 -11 3 -14 6 -6 3 7 2 16 -1 19 -3 4 -6 -2 -5 -13z"/>
<path d="M8695 310 c3 -5 30 -10 59 -10 28 0 57 -5 64 -12 9 -9 12 -9 12 0 0
7 -12 17 -26 22 -34 13 -117 13 -109 0z"/>
<path d="M5358 254 c5 -66 7 -66 16 4 5 39 4 52 -6 52 -9 0 -12 -15 -10 -56z"/>
<path d="M8860 301 c8 -5 44 -12 80 -16 36 -4 70 -11 76 -16 7 -6 16 -9 20 -7
19 5 214 -26 214 -34 0 -4 7 -8 15 -8 22 0 18 15 -7 28 -25 12 -161 36 -193
34 -11 -1 -33 3 -50 7 -44 14 -173 24 -155 12z"/>
<path d="M9796 295 c18 -15 18 -15 0 -13 -27 4 -31 -18 -4 -25 26 -7 25 -9 33
26 7 25 5 27 -21 27 -27 0 -27 -1 -8 -15z"/>
<path d="M3995 288 c-69 -24 -72 -27 -27 -27 48 -1 54 -9 71 -101 l10 -55 -7
60 c-3 33 -6 77 -6 98 0 20 -2 37 -6 36 -3 -1 -18 -6 -35 -11z"/>
<path d="M5229 243 c4 -64 7 -62 14 10 3 31 1 47 -7 47 -7 0 -10 -19 -7 -57z"/>
<path d="M10176 278 c-9 -12 -16 -29 -16 -38 -1 -8 -7 -26 -14 -39 -18 -33
-10 -51 24 -51 16 0 32 -4 35 -10 3 -5 12 -10 20 -10 19 0 31 119 16 149 -15
27 -46 27 -65 -1z"/>
<path d="M8470 273 c1 -10 26 -43 32 -43 3 0 3 11 0 25 -4 22 -33 37 -32 18z"/>
<path d="M8574 268 c-4 -6 -2 -14 4 -16 7 -2 20 -18 29 -35 15 -30 17 -31 25
-12 20 45 -34 103 -58 63z"/>
<path d="M10606 265 c4 -8 8 -15 10 -15 2 0 4 7 4 15 0 8 -4 15 -10 15 -5 0
-7 -7 -4 -15z"/>
<path d="M7502 250 c0 -14 2 -19 5 -12 2 6 2 18 0 25 -3 6 -5 1 -5 -13z"/>
<path d="M8731 261 c-11 -7 -11 -13 3 -32 9 -13 16 -31 16 -41 0 -20 34 -25
45 -7 9 14 -2 55 -21 73 -18 18 -24 19 -43 7z"/>
<path d="M10702 240 c0 -19 2 -27 5 -17 2 9 2 25 0 35 -3 9 -5 1 -5 -18z"/>
<path d="M2690 228 c-23 -25 -24 -41 -8 -120 13 -62 14 -63 52 -48 21 8 26 16
26 45 0 19 -4 35 -9 35 -5 0 -4 11 2 24 6 13 17 21 24 19 20 -8 16 31 -5 50
-25 23 -57 21 -82 -5z"/>
<path d="M5850 250 c-1 -3 -3 -13 -5 -23 -5 -26 -15 -34 -15 -12 0 15 -3 16
-12 7 -10 -10 -10 -15 2 -22 20 -12 44 11 37 36 -3 11 -6 17 -7 14z"/>
<path d="M7821 234 c0 -11 3 -14 6 -6 3 7 2 16 -1 19 -3 4 -6 -2 -5 -13z"/>
<path d="M8910 235 c-10 -12 -10 -19 -2 -27 7 -7 12 -26 12 -44 0 -31 21 -51
41 -38 5 3 9 0 9 -6 0 -6 5 -8 10 -5 6 4 8 10 5 15 -3 5 -1 11 5 15 15 9 12
41 -5 75 -17 34 -54 40 -75 15z"/>
<path d="M3742 220 c0 -14 2 -19 5 -12 2 6 2 18 0 25 -3 6 -5 1 -5 -13z"/>
<path d="M6900 230 c0 -5 5 -10 11 -10 5 0 7 5 4 10 -3 6 -8 10 -11 10 -2 0
-4 -4 -4 -10z"/>
<path d="M9290 233 c0 -5 48 -16 107 -25 70 -12 110 -23 115 -33 6 -10 18 -13
37 -9 29 6 224 -32 229 -44 1 -4 7 -14 13 -22 8 -11 12 -12 16 -2 2 6 19 12
36 13 l32 1 -37 10 c-21 6 -38 16 -38 23 0 8 -7 11 -19 8 -10 -2 -48 3 -85 12
-37 9 -90 21 -119 25 -28 5 -92 18 -142 29 -95 21 -145 26 -145 14z"/>
<path d="M10305 230 c-3 -6 -11 -53 -17 -106 -9 -80 -9 -97 3 -105 23 -15 39
-10 39 11 0 11 9 53 20 92 18 65 18 74 5 95 -16 24 -39 30 -50 13z"/>
<path d="M7630 221 c0 -9 -7 -11 -21 -8 -12 3 -18 2 -13 -3 15 -13 134 -24
134 -11 0 11 -26 16 -64 12 -11 -1 -23 4 -28 11 -6 10 -8 10 -8 -1z"/>
<path d="M4440 212 c0 -5 7 -15 15 -22 8 -7 15 -8 15 -2 0 5 -7 15 -15 22 -8
7 -15 8 -15 2z"/>
<path d="M9109 200 c-19 -16 -21 -21 -10 -29 7 -5 11 -14 7 -19 -8 -13 33 -64
46 -56 4 3 8 0 8 -7 0 -6 8 -9 20 -6 11 3 23 0 27 -6 11 -18 20 44 11 77 -17
64 -65 84 -109 46z"/>
<path d="M10410 175 c-8 -21 -6 -32 11 -55 12 -15 27 -26 34 -24 14 6 15 70 1
92 -12 20 -36 14 -46 -13z"/>
<path d="M2530 181 c0 -5 6 -12 13 -14 6 -3 2 -6 -10 -6 -16 -1 -23 -7 -23
-20 0 -27 13 -33 48 -20 22 8 29 15 25 27 -10 29 -53 56 -53 33z"/>
<path d="M1200 170 c0 -5 5 -10 11 -10 5 0 7 5 4 10 -3 6 -8 10 -11 10 -2 0
-4 -4 -4 -10z"/>
<path d="M10657 167 c-11 -29 -9 -43 4 -30 6 6 9 19 7 29 -3 18 -4 18 -11 1z"/>
<path d="M9358 159 c-14 -8 -18 -23 -17 -74 1 -42 6 -68 15 -76 11 -9 14 -9
14 0 0 7 5 9 11 5 7 -4 29 -9 50 -11 37 -5 38 -4 49 36 23 88 -51 162 -122
120z"/>
<path d="M11120 133 c-30 -19 -66 -45 -80 -58 -14 -12 -39 -29 -57 -38 l-32
-15 6 31 c3 18 11 39 17 47 10 13 9 13 -8 0 -23 -18 -49 -77 -41 -90 4 -6 33
-10 66 -10 58 0 60 1 87 42 15 22 47 61 72 84 54 53 44 55 -30 7z"/>
<path d="M8770 151 c0 -6 5 -13 10 -16 6 -3 10 1 10 9 0 9 -4 16 -10 16 -5 0
-10 -4 -10 -9z"/>
<path d="M10515 150 c-13 -21 -19 -130 -6 -130 6 0 11 9 11 20 0 11 7 20 15
20 11 0 15 11 15 39 0 40 -22 72 -35 51z"/>
<path d="M4438 133 c6 -2 18 -2 25 0 6 3 1 5 -13 5 -14 0 -19 -2 -12 -5z"/>
<path d="M10133 125 c0 -10 6 -14 14 -10 8 3 20 5 26 6 7 0 3 4 -8 9 -29 12
-32 12 -32 -5z"/>
<path d="M3450 116 c0 -8 5 -18 10 -21 6 -3 10 1 10 9 0 8 -4 18 -10 21 -5 3
-10 -1 -10 -9z"/>
<path d="M9055 120 c27 -12 43 -12 25 0 -8 5 -22 9 -30 9 -10 0 -8 -3 5 -9z"/>
<path d="M4220 95 c-18 -47 -11 -76 22 -88 21 -7 26 8 20 55 -6 51 -28 69 -42
33z"/>
<path d="M10399 71 c-5 -61 -2 -71 18 -71 9 0 13 6 10 15 -4 8 -2 17 3 20 12
8 2 55 -15 74 -11 11 -14 4 -16 -38z"/>
<path d="M9612 94 c-14 -10 -22 -25 -22 -45 0 -16 -5 -29 -11 -29 -5 0 -7 -5
-4 -10 9 -15 42 -12 49 5 3 8 12 15 21 15 9 0 18 -7 21 -15 4 -10 20 -15 45
-15 35 0 39 2 39 26 0 35 -50 84 -87 84 -16 0 -39 -7 -51 -16z"/>
<path d="M10589 108 c0 -2 -2 -22 -4 -46 -2 -32 0 -42 11 -42 8 0 14 6 13 13
-1 6 1 20 5 30 9 20 1 47 -14 47 -5 0 -10 -1 -11 -2z"/>
<path d="M4440 96 c0 -2 7 -7 16 -10 8 -3 12 -2 9 4 -6 10 -25 14 -25 6z"/>
<path d="M1014 75 c-8 -20 3 -48 15 -40 6 3 16 -5 23 -17 12 -23 12 -23 18 7
3 20 13 31 30 36 26 7 11 13 -27 9 -13 -1 -23 3 -23 9 0 17 -30 13 -36 -4z"/>
<path d="M4133 83 c-8 -2 -13 -22 -13 -44 0 -37 2 -39 30 -39 26 0 30 4 30 26
0 27 -16 64 -28 63 -4 0 -13 -3 -19 -6z"/>
<path d="M11420 74 c0 -7 9 -22 20 -35 25 -31 26 -12 0 21 -11 14 -20 20 -20
14z"/>
<path d="M4456 61 c-4 -7 -5 -15 -2 -18 9 -9 19 4 14 18 -4 11 -6 11 -12 0z"/>
<path d="M10127 57 c-3 -7 3 -13 14 -13 13 0 15 3 7 13 -6 7 -12 13 -13 13 -2
0 -5 -6 -8 -13z"/>
<path d="M3507 54 c-3 -3 -3 -12 -1 -19 3 -7 0 -16 -6 -20 -6 -3 -9 -1 -8 6 2
7 -5 15 -14 17 -13 2 -18 -3 -18 -17 0 -17 6 -21 30 -21 27 0 30 3 30 30 0 31
-2 35 -13 24z"/>
<path d="M4067 53 c-4 -3 -7 -17 -7 -30 0 -16 6 -23 20 -23 20 0 25 15 14 44
-7 17 -16 20 -27 9z"/>
<path d="M3140 36 c0 -9 5 -16 10 -16 6 0 10 4 10 9 0 6 -4 13 -10 16 -5 3
-10 -1 -10 -9z"/>
<path d="M10648 25 c-3 -14 -1 -25 3 -25 5 0 9 11 9 25 0 32 -6 32 -12 0z"/>
<path d="M1099 20 c-20 -16 -21 -19 -7 -20 10 0 22 9 28 20 13 25 8 25 -21 0z"/>
<path d="M3950 16 c0 -11 9 -16 26 -16 31 0 28 23 -4 28 -15 2 -22 -2 -22 -12z"/>
<path d="M10691 14 c0 -11 3 -14 6 -6 3 7 2 16 -1 19 -3 4 -6 -2 -5 -13z"/>
<path d="M2530 10 c0 -5 5 -10 11 -10 5 0 7 5 4 10 -3 6 -8 10 -11 10 -2 0 -4
-4 -4 -10z"/>
<path d="M9865 10 c-4 -6 6 -10 22 -10 22 0 25 2 13 10 -19 12 -27 12 -35 0z"/>
</g>
</svg>
